Istok-Italic.ufo
<glyph name="comma" format="2">
  <advance width="600"/>
  <unicode hex="002C"/>
  <outline>
    <contour>
      <point x="122.0" y="0.0" type="line" smooth="yes"/>
      <point x="76.0" y="0.0"/>
      <point x="87.0" y="45.0" type="qcurve" smooth="yes"/>
      <point x="116.0" y="167.0" type="line" smooth="yes"/>
      <point x="127.0" y="212.0"/>
      <point x="171.0" y="212.0" type="qcurve" smooth="yes"/>
      <point x="287.0" y="212.0" type="line" smooth="yes"/>
      <point x="333.0" y="212.0"/>
      <point x="322.0" y="167.0" type="qcurve" smooth="yes"/>
      <point x="293.0" y="45.0" type="line" smooth="yes"/>
      <point x="263.0" y="-82.0"/>
      <point x="188.0" y="-212.0"/>
      <point x="110.0" y="-274.0" type="qcurve" smooth="yes"/>
      <point x="84.0" y="-294.0"/>
      <point x="72.0" y="-281.0" type="qcurve" smooth="yes"/>
      <point x="35.0" y="-241.0" type="line" smooth="yes"/>
      <point x="21.0" y="-226.0"/>
      <point x="48.0" y="-206.0" type="qcurve" smooth="yes"/>
      <point x="83.0" y="-180.0"/>
      <point x="161.0" y="-55.0"/>
      <point x="174.0" y="0.0" type="qcurve"/>
    </contour>
  </outline>
</glyph>
<glyph name="hyphen" format="2">
  <advance width="680"/>
  <unicode hex="002D"/>
  <outline>
    <contour>
      <point x="93.0" y="483.0" type="line" smooth="yes"/>
      <point x="48.0" y="483.0"/>
      <point x="56.0" y="518.0" type="qcurve" smooth="yes"/>
      <point x="72.0" y="588.0" type="line" smooth="yes"/>
      <point x="80.0" y="623.0"/>
      <point x="125.0" y="623.0" type="qcurve" smooth="yes"/>
      <point x="603.0" y="623.0" type="line" smooth="yes"/>
      <point x="648.0" y="623.0"/>
      <point x="640.0" y="588.0" type="qcurve" smooth="yes"/>
      <point x="624.0" y="518.0" type="line" smooth="yes"/>
      <point x="616.0" y="483.0"/>
      <point x="571.0" y="483.0" type="qcurve" smooth="yes"/>
    </contour>
  </outline>
</glyph>
<glyph name="two" format="2">
  <advance width="1110"/>
  <unicode hex="0032"/>
  <outline>
    <contour>
      <point x="29.0" y="0.0" type="line" smooth="yes"/>
      <point x="-26.0" y="0.0"/>
      <point x="-16.0" y="45.0" type="qcurve" smooth="yes"/>
      <point x="-5.0" y="93.0" type="line" smooth="yes"/>
      <point x="4.0" y="131.0"/>
      <point x="45.0" y="165.0" type="qcurve" smooth="yes"/>
      <point x="528.0" y="560.0" type="line" smooth="yes"/>
      <point x="743.0" y="736.0"/>
      <point x="927.0" y="972.0"/>
      <point x="927.0" y="1101.0" type="qcurve" smooth="yes"/>
      <point x="927.0" y="1179.0"/>
      <point x="825.0" y="1302.0"/>
      <point x="704.0" y="1302.0" type="qcurve" smooth="yes"/>
      <point x="579.0" y="1302.0"/>
      <point x="423.0" y="1158.0"/>
      <point x="381.0" y="1057.0" type="qcurve" smooth="yes"/>
      <point x="359.0" y="1003.0"/>
      <point x="318.0" y="1019.0" type="qcurve" smooth="yes"/>
      <point x="243.0" y="1048.0" type="line" smooth="yes"/>
      <point x="210.0" y="1061.0"/>
      <point x="235.0" y="1134.0" type="qcurve" smooth="yes"/>
      <point x="276.0" y="1254.0"/>
      <point x="534.0" y="1452.0"/>
      <point x="706.0" y="1452.0" type="qcurve" smooth="yes"/>
      <point x="918.0" y="1452.0"/>
      <point x="1123.0" y="1263.0"/>
      <point x="1123.0" y="1104.0" type="qcurve" smooth="yes"/>
      <point x="1123.0" y="909.0"/>
      <point x="856.0" y="633.0"/>
      <point x="669.0" y="485.0" type="qcurve" smooth="yes"/>
      <point x="266.0" y="166.0" type="line"/>
      <point x="265.0" y="162.0" type="line"/>
      <point x="306.0" y="164.0"/>
      <point x="346.0" y="164.0" type="qcurve" smooth="yes"/>
      <point x="877.0" y="164.0" type="line" smooth="yes"/>
      <point x="931.0" y="164.0"/>
      <point x="921.0" y="119.0" type="qcurve" smooth="yes"/>
      <point x="904.0" y="45.0" type="line" smooth="yes"/>
      <point x="894.0" y="0.0"/>
      <point x="839.0" y="0.0" type="qcurve" smooth="yes"/>
    </contour>
  </outline>
</glyph>
<glyph name="four" format="2">
  <advance width="1110"/>
  <unicode hex="0034"/>
  <outline>
    <contour>
      <point x="71.0" y="354.0" type="line" smooth="yes"/>
      <point x="26.0" y="354.0"/>
      <point x="36.0" y="399.0" type="qcurve" smooth="yes"/>
      <point x="56.0" y="487.0" type="line" smooth="yes"/>
      <point x="64.0" y="519.0"/>
      <point x="96.0" y="556.0" type="qcurve" smooth="yes"/>
      <point x="841.0" y="1404.0" type="line" smooth="yes"/>
      <point x="872.0" y="1440.0"/>
      <point x="905.0" y="1440.0" type="qcurve" smooth="yes"/>
      <point x="996.0" y="1440.0" type="line" smooth="yes"/>
      <point x="1042.0" y="1440.0"/>
      <point x="1032.0" y="1395.0" type="qcurve" smooth="yes"/>
      <point x="830.0" y="518.0" type="line"/>
      <point x="1001.0" y="518.0" type="line" smooth="yes"/>
      <point x="1046.0" y="518.0"/>
      <point x="1035.0" y="473.0" type="qcurve" smooth="yes"/>
      <point x="1018.0" y="399.0" type="line" smooth="yes"/>
      <point x="1008.0" y="354.0"/>
      <point x="964.0" y="354.0" type="qcurve" smooth="yes"/>
      <point x="792.0" y="354.0" type="line"/>
      <point x="720.0" y="45.0" type="line" smooth="yes"/>
      <point x="710.0" y="0.0"/>
      <point x="665.0" y="0.0" type="qcurve" smooth="yes"/>
      <point x="579.0" y="0.0" type="line" smooth="yes"/>
      <point x="534.0" y="0.0"/>
      <point x="544.0" y="45.0" type="qcurve" smooth="yes"/>
      <point x="616.0" y="354.0" type="line"/>
    </contour>
    <contour>
      <point x="255.0" y="518.0" type="line"/>
      <point x="654.0" y="518.0" type="line"/>
      <point x="781.0" y="1073.0" type="line" smooth="yes"/>
      <point x="788.0" y="1103.0"/>
      <point x="797.0" y="1133.0" type="qcurve"/>
      <point x="795.0" y="1133.0" type="line"/>
    </contour>
  </outline>
</glyph>
<glyph name="five" format="2">
  <advance width="1110"/>
  <unicode hex="0035"/>
  <outline>
    <contour>
      <point x="49.0" y="169.0" type="qcurve" smooth="yes"/>
      <point x="15.0" y="222.0"/>
      <point x="46.0" y="245.0" type="qcurve" smooth="yes"/>
      <point x="113.0" y="294.0" type="line" smooth="yes"/>
      <point x="149.0" y="322.0"/>
      <point x="189.0" y="263.0" type="qcurve" smooth="yes"/>
      <point x="213.0" y="227.0"/>
      <point x="342.0" y="120.0"/>
      <point x="469.0" y="120.0" type="qcurve" smooth="yes"/>
      <point x="618.0" y="120.0"/>
      <point x="801.0" y="336.0"/>
      <point x="801.0" y="501.0" type="qcurve" smooth="yes"/>
      <point x="801.0" y="630.0"/>
      <point x="690.0" y="736.0"/>
      <point x="578.0" y="736.0" type="qcurve" smooth="yes"/>
      <point x="531.0" y="736.0"/>
      <point x="434.0" y="709.0"/>
      <point x="356.0" y="658.0" type="qcurve" smooth="yes"/>
      <point x="306.0" y="625.0"/>
      <point x="268.0" y="625.0" type="qcurve" smooth="yes"/>
      <point x="221.0" y="625.0" type="line" smooth="yes"/>
      <point x="177.0" y="625.0"/>
      <point x="187.0" y="670.0" type="qcurve" smooth="yes"/>
      <point x="350.0" y="1377.0" type="line" smooth="yes"/>
      <point x="360.0" y="1422.0"/>
      <point x="405.0" y="1422.0" type="qcurve" smooth="yes"/>
      <point x="1095.0" y="1422.0" type="line" smooth="yes"/>
      <point x="1140.0" y="1422.0"/>
      <point x="1130.0" y="1377.0" type="qcurve" smooth="yes"/>
      <point x="1113.0" y="1303.0" type="line" smooth="yes"/>
      <point x="1103.0" y="1258.0"/>
      <point x="1057.0" y="1258.0" type="qcurve" smooth="yes"/>
      <point x="498.0" y="1258.0" type="line"/>
      <point x="407.0" y="863.0" type="line" smooth="yes"/>
      <point x="402.0" y="839.0"/>
      <point x="391.0" y="803.0" type="qcurve"/>
      <point x="395.0" y="803.0" type="line"/>
      <point x="440.0" y="846.0"/>
      <point x="579.0" y="886.0"/>
      <point x="633.0" y="886.0" type="qcurve" smooth="yes"/>
      <point x="840.0" y="886.0"/>
      <point x="997.0" y="657.0"/>
      <point x="997.0" y="480.0" type="qcurve" smooth="yes"/>
      <point x="997.0" y="261.0"/>
      <point x="693.0" y="-30.0"/>
      <point x="460.0" y="-30.0" type="qcurve" smooth="yes"/>
      <point x="282.0" y="-30.0"/>
      <point x="87.0" y="107.0"/>
    </contour>
  </outline>
</glyph>
<glyph name="eight" format="2">
  <advance width="1110"/>
  <unicode hex="0038"/>
  <outline>
    <contour>
      <point x="57.0" y="350.0" type="qcurve" smooth="yes"/>
      <point x="57.0" y="510.0"/>
      <point x="291.0" y="747.0"/>
      <point x="403.0" y="772.0" type="qcurve"/>
      <point x="403.0" y="775.0" type="line"/>
      <point x="327.0" y="823.0"/>
      <point x="255.0" y="951.0"/>
      <point x="255.0" y="1048.0" type="qcurve" smooth="yes"/>
      <point x="255.0" y="1213.0"/>
      <point x="525.0" y="1452.0"/>
      <point x="727.0" y="1452.0" type="qcurve" smooth="yes"/>
      <point x="932.0" y="1452.0"/>
      <point x="1117.0" y="1266.0"/>
      <point x="1117.0" y="1128.0" type="qcurve" smooth="yes"/>
      <point x="1117.0" y="970.0"/>
      <point x="897.0" y="780.0"/>
      <point x="803.0" y="766.0" type="qcurve"/>
      <point x="803.0" y="764.0" type="line"/>
      <point x="897.0" y="729.0"/>
      <point x="990.0" y="567.0"/>
      <point x="990.0" y="460.0" type="qcurve" smooth="yes"/>
      <point x="990.0" y="258.0"/>
      <point x="693.0" y="-30.0"/>
      <point x="473.0" y="-30.0" type="qcurve" smooth="yes"/>
      <point x="279.0" y="-30.0"/>
      <point x="57.0" y="162.0"/>
    </contour>
    <contour>
      <point x="252.0" y="356.0" type="qcurve" smooth="yes"/>
      <point x="252.0" y="243.0"/>
      <point x="360.0" y="120.0"/>
      <point x="484.0" y="120.0" type="qcurve" smooth="yes"/>
      <point x="615.0" y="120.0"/>
      <point x="794.0" y="312.0"/>
      <point x="794.0" y="446.0" type="qcurve" smooth="yes"/>
      <point x="794.0" y="540.0"/>
      <point x="711.0" y="684.0"/>
      <point x="601.0" y="684.0" type="qcurve" smooth="yes"/>
      <point x="453.0" y="684.0"/>
      <point x="252.0" y="486.0"/>
    </contour>
    <contour>
      <point x="443.0" y="1068.0" type="qcurve" smooth="yes"/>
      <point x="443.0" y="939.0"/>
      <point x="543.0" y="846.0"/>
      <point x="614.0" y="846.0" type="qcurve" smooth="yes"/>
      <point x="738.0" y="846.0"/>
      <point x="929.0" y="996.0"/>
      <point x="929.0" y="1108.0" type="qcurve" smooth="yes"/>
      <point x="929.0" y="1196.0"/>
      <point x="828.0" y="1302.0"/>
      <point x="716.0" y="1302.0" type="qcurve" smooth="yes"/>
      <point x="602.0" y="1302.0"/>
      <point x="443.0" y="1146.0"/>
    </contour>
  </outline>
</glyph>
<glyph name="nine" format="2">
  <advance width="1110"/>
  <unicode hex="0039"/>
  <outline>
    <contour>
      <point x="179.0" y="912.0" type="qcurve" smooth="yes"/>
      <point x="179.0" y="1119.0"/>
      <point x="452.0" y="1452.0"/>
      <point x="686.0" y="1452.0" type="qcurve" smooth="yes"/>
      <point x="875.0" y="1452.0"/>
      <point x="1083.0" y="1197.0"/>
      <point x="1083.0" y="973.0" type="qcurve" smooth="yes"/>
      <point x="1083.0" y="558.0"/>
      <point x="725.0" y="-30.0"/>
      <point x="409.0" y="-30.0" type="qcurve" smooth="yes"/>
      <point x="307.0" y="-30.0"/>
      <point x="140.0" y="38.0"/>
      <point x="92.0" y="93.0" type="qcurve" smooth="yes"/>
      <point x="53.0" y="138.0"/>
      <point x="78.0" y="159.0" type="qcurve" smooth="yes"/>
      <point x="140.0" y="209.0" type="line" smooth="yes"/>
      <point x="177.0" y="240.0"/>
      <point x="212.0" y="196.0" type="qcurve" smooth="yes"/>
      <point x="239.0" y="162.0"/>
      <point x="355.0" y="120.0"/>
      <point x="431.0" y="120.0" type="qcurve" smooth="yes"/>
      <point x="587.0" y="120.0"/>
      <point x="836.0" y="435.0"/>
      <point x="891.0" y="679.0" type="qcurve"/>
      <point x="889.0" y="679.0" type="line"/>
      <point x="832.0" y="601.0"/>
      <point x="641.0" y="523.0"/>
      <point x="551.0" y="523.0" type="qcurve" smooth="yes"/>
      <point x="383.0" y="523.0"/>
      <point x="179.0" y="720.0"/>
    </contour>
    <contour>
      <point x="375.0" y="898.0" type="qcurve" smooth="yes"/>
      <point x="375.0" y="792.0"/>
      <point x="493.0" y="676.0"/>
      <point x="593.0" y="676.0" type="qcurve" smooth="yes"/>
      <point x="725.0" y="676.0"/>
      <point x="894.0" y="917.0"/>
      <point x="894.0" y="1038.0" type="qcurve" smooth="yes"/>
      <point x="894.0" y="1161.0"/>
      <point x="782.0" y="1302.0"/>
      <point x="679.0" y="1302.0" type="qcurve" smooth="yes"/>
      <point x="554.0" y="1302.0"/>
      <point x="375.0" y="1044.0"/>
    </contour>
  </outline>
</glyph>
<glyph name="question" format="2">
  <advance width="1016"/>
  <unicode hex="003F"/>
  <outline>
    <contour>
      <point x="251.0" y="1170.0" type="line" smooth="yes"/>
      <point x="217.0" y="1189.0"/>
      <point x="255.0" y="1256.0" type="qcurve" smooth="yes"/>
      <point x="297.0" y="1329.0"/>
      <point x="507.0" y="1464.0"/>
      <point x="670.0" y="1464.0" type="qcurve" smooth="yes"/>
      <point x="868.0" y="1464.0"/>
      <point x="1047.0" y="1302.0"/>
      <point x="1047.0" y="1133.0" type="qcurve" smooth="yes"/>
      <point x="1047.0" y="974.0"/>
      <point x="585.0" y="562.0"/>
      <point x="558.0" y="438.0" type="qcurve" smooth="yes"/>
      <point x="553.0" y="415.0" type="line" smooth="yes"/>
      <point x="543.0" y="370.0"/>
      <point x="497.0" y="370.0" type="qcurve" smooth="yes"/>
      <point x="411.0" y="370.0" type="line" smooth="yes"/>
      <point x="367.0" y="370.0"/>
      <point x="377.0" y="415.0" type="qcurve" smooth="yes"/>
      <point x="385.0" y="452.0" type="line" smooth="yes"/>
      <point x="423.0" y="628.0"/>
      <point x="851.0" y="1023.0"/>
      <point x="851.0" y="1144.0" type="qcurve" smooth="yes"/>
      <point x="851.0" y="1242.0"/>
      <point x="744.0" y="1314.0"/>
      <point x="664.0" y="1314.0" type="qcurve" smooth="yes"/>
      <point x="576.0" y="1314.0"/>
      <point x="417.0" y="1212.0"/>
      <point x="390.0" y="1159.0" type="qcurve" smooth="yes"/>
      <point x="363.0" y="1107.0"/>
      <point x="322.0" y="1130.0" type="qcurve" smooth="yes"/>
    </contour>
    <contour>
      <point x="312.0" y="0.0" type="line" smooth="yes"/>
      <point x="267.0" y="0.0"/>
      <point x="277.0" y="45.0" type="qcurve" smooth="yes"/>
      <point x="306.0" y="167.0" type="line" smooth="yes"/>
      <point x="316.0" y="212.0"/>
      <point x="361.0" y="212.0" type="qcurve" smooth="yes"/>
      <point x="473.0" y="212.0" type="line" smooth="yes"/>
      <point x="518.0" y="212.0"/>
      <point x="508.0" y="167.0" type="qcurve" smooth="yes"/>
      <point x="479.0" y="45.0" type="line" smooth="yes"/>
      <point x="469.0" y="0.0"/>
      <point x="424.0" y="0.0" type="qcurve" smooth="yes"/>
    </contour>
  </outline>
</glyph>
<glyph name="C" format="2">
  <advance width="1392"/>
  <unicode hex="0043"/>
  <outline>
    <contour>
      <point x="110.0" y="580.0" type="qcurve" smooth="yes"/>
      <point x="110.0" y="975.0"/>
      <point x="531.0" y="1464.0"/>
      <point x="908.0" y="1464.0" type="qcurve" smooth="yes"/>
      <point x="1092.0" y="1464.0"/>
      <point x="1320.0" y="1336.0"/>
      <point x="1367.0" y="1230.0" type="qcurve" smooth="yes"/>
      <point x="1390.0" y="1177.0"/>
      <point x="1344.0" y="1150.0" type="qcurve" smooth="yes"/>
      <point x="1266.0" y="1104.0" type="line" smooth="yes"/>
      <point x="1239.0" y="1088.0"/>
      <point x="1214.0" y="1132.0" type="qcurve" smooth="yes"/>
      <point x="1184.0" y="1186.0"/>
      <point x="1026.0" y="1308.0"/>
      <point x="891.0" y="1308.0" type="qcurve" smooth="yes"/>
      <point x="641.0" y="1308.0"/>
      <point x="315.0" y="942.0"/>
      <point x="315.0" y="557.0" type="qcurve" smooth="yes"/>
      <point x="315.0" y="375.0"/>
      <point x="507.0" y="126.0"/>
      <point x="737.0" y="126.0" type="qcurve" smooth="yes"/>
      <point x="873.0" y="126.0"/>
      <point x="1062.0" y="269.0"/>
      <point x="1114.0" y="341.0" type="qcurve" smooth="yes"/>
      <point x="1156.0" y="399.0"/>
      <point x="1192.0" y="376.0" type="qcurve" smooth="yes"/>
      <point x="1282.0" y="318.0" type="line" smooth="yes"/>
      <point x="1315.0" y="297.0"/>
      <point x="1274.0" y="238.0" type="qcurve" smooth="yes"/>
      <point x="1195.0" y="123.0"/>
      <point x="927.0" y="-30.0"/>
      <point x="710.0" y="-30.0" type="qcurve" smooth="yes"/>
      <point x="408.0" y="-30.0"/>
      <point x="110.0" y="315.0"/>
    </contour>
  </outline>
</glyph>
<glyph name="K" format="2">
  <advance width="1328"/>
  <unicode hex="004B"/>
  <outline>
    <contour>
      <point x="100.0" y="0.0" type="line" smooth="yes"/>
      <point x="50.0" y="0.0"/>
      <point x="63.0" y="55.0" type="qcurve" smooth="yes"/>
      <point x="368.0" y="1379.0" type="line" smooth="yes"/>
      <point x="381.0" y="1434.0"/>
      <point x="431.0" y="1434.0" type="qcurve" smooth="yes"/>
      <point x="523.0" y="1434.0" type="line" smooth="yes"/>
      <point x="573.0" y="1434.0"/>
      <point x="560.0" y="1379.0" type="qcurve" smooth="yes"/>
      <point x="430.0" y="814.0" type="line" smooth="yes"/>
      <point x="425.0" y="792.0"/>
      <point x="409.0" y="734.0" type="qcurve"/>
      <point x="413.0" y="734.0" type="line"/>
      <point x="1212.0" y="1395.0" type="line" smooth="yes"/>
      <point x="1259.0" y="1434.0"/>
      <point x="1291.0" y="1434.0" type="qcurve" smooth="yes"/>
      <point x="1434.0" y="1434.0" type="line" smooth="yes"/>
      <point x="1517.0" y="1434.0"/>
      <point x="1437.0" y="1368.0" type="qcurve" smooth="yes"/>
      <point x="809.0" y="850.0" type="line"/>
      <point x="1163.0" y="66.0" type="line" smooth="yes"/>
      <point x="1193.0" y="0.0"/>
      <point x="1130.0" y="0.0" type="qcurve" smooth="yes"/>
      <point x="1023.0" y="0.0" type="line" smooth="yes"/>
      <point x="980.0" y="-0.0"/>
      <point x="962.0" y="39.0" type="qcurve" smooth="yes"/>
      <point x="655.0" y="723.0" type="line"/>
      <point x="351.0" y="471.0" type="line"/>
      <point x="255.0" y="55.0" type="line" smooth="yes"/>
      <point x="242.0" y="0.0"/>
      <point x="192.0" y="0.0" type="qcurve" smooth="yes"/>
    </contour>
  </outline>
</glyph>
<glyph name="L" format="2">
  <advance width="1136"/>
  <unicode hex="004C"/>
  <outline>
    <contour>
      <point x="100.0" y="0.0" type="line" smooth="yes"/>
      <point x="50.0" y="0.0"/>
      <point x="63.0" y="55.0" type="qcurve" smooth="yes"/>
      <point x="368.0" y="1379.0" type="line" smooth="yes"/>
      <point x="381.0" y="1434.0"/>
      <point x="431.0" y="1434.0" type="qcurve" smooth="yes"/>
      <point x="523.0" y="1434.0" type="line" smooth="yes"/>
      <point x="573.0" y="1434.0"/>
      <point x="560.0" y="1379.0" type="qcurve" smooth="yes"/>
      <point x="280.0" y="164.0" type="line"/>
      <point x="943.0" y="164.0" type="line" smooth="yes"/>
      <point x="998.0" y="164.0"/>
      <point x="987.0" y="119.0" type="qcurve" smooth="yes"/>
      <point x="970.0" y="45.0" type="line" smooth="yes"/>
      <point x="960.0" y="0.0"/>
      <point x="905.0" y="0.0" type="qcurve" smooth="yes"/>
    </contour>
  </outline>
</glyph>
<glyph name="P" format="2">
  <advance width="1298"/>
  <unicode hex="0050"/>
  <outline>
    <contour>
      <point x="100.0" y="0.0" type="line" smooth="yes"/>
      <point x="50.0" y="0.0"/>
      <point x="63.0" y="55.0" type="qcurve" smooth="yes"/>
      <point x="368.0" y="1379.0" type="line" smooth="yes"/>
      <point x="381.0" y="1434.0"/>
      <point x="431.0" y="1434.0" type="qcurve" smooth="yes"/>
      <point x="841.0" y="1434.0" type="line" smooth="yes"/>
      <point x="1075.0" y="1434.0"/>
      <point x="1318.0" y="1224.0"/>
      <point x="1318.0" y="1045.0" type="qcurve" smooth="yes"/>
      <point x="1318.0" y="864.0"/>
      <point x="1027.0" y="576.0"/>
      <point x="673.0" y="576.0" type="qcurve" smooth="yes"/>
      <point x="375.0" y="576.0" type="line"/>
      <point x="255.0" y="55.0" type="line" smooth="yes"/>
      <point x="242.0" y="0.0"/>
      <point x="192.0" y="0.0" type="qcurve" smooth="yes"/>
    </contour>
    <contour>
      <point x="413.0" y="740.0" type="line"/>
      <point x="724.0" y="740.0" type="line" smooth="yes"/>
      <point x="931.0" y="740.0"/>
      <point x="1123.0" y="897.0"/>
      <point x="1123.0" y="1025.0" type="qcurve" smooth="yes"/>
      <point x="1123.0" y="1161.0"/>
      <point x="973.0" y="1270.0"/>
      <point x="806.0" y="1270.0" type="qcurve" smooth="yes"/>
      <point x="535.0" y="1270.0" type="line"/>
    </contour>
  </outline>
</glyph>
<glyph name="Q" format="2">
  <advance width="1514"/>
  <unicode hex="0051"/>
  <outline>
    <contour>
      <point x="110.0" y="580.0" type="qcurve" smooth="yes"/>
      <point x="110.0" y="980.0"/>
      <point x="538.0" y="1464.0"/>
      <point x="878.0" y="1464.0" type="qcurve" smooth="yes"/>
      <point x="1183.0" y="1464.0"/>
      <point x="1495.0" y="1139.0"/>
      <point x="1495.0" y="854.0" type="qcurve" smooth="yes"/>
      <point x="1495.0" y="454.0"/>
      <point x="1281.0" y="212.0" type="qcurve" smooth="yes"/>
      <point x="1096.0" y="3.0"/>
      <point x="817.0" y="-26.0" type="qcurve"/>
      <point x="818.0" y="-149.0"/>
      <point x="921.0" y="-237.0"/>
      <point x="1036.0" y="-237.0" type="qcurve" smooth="yes"/>
      <point x="1087.0" y="-237.0"/>
      <point x="1152.0" y="-224.0" type="qcurve" smooth="yes"/>
      <point x="1192.0" y="-217.0"/>
      <point x="1195.0" y="-239.0" type="qcurve" smooth="yes"/>
      <point x="1207.0" y="-329.0" type="line" smooth="yes"/>
      <point x="1210.0" y="-353.0"/>
      <point x="1179.0" y="-357.0" type="qcurve" smooth="yes"/>
      <point x="1057.0" y="-377.0"/>
      <point x="1004.0" y="-377.0" type="qcurve" smooth="yes"/>
      <point x="799.0" y="-377.0"/>
      <point x="625.0" y="-208.0"/>
      <point x="625.0" y="-25.0" type="qcurve"/>
      <point x="395.0" y="-2.0"/>
      <point x="266.0" y="132.0" type="qcurve" smooth="yes"/>
      <point x="110.0" y="295.0"/>
    </contour>
    <contour>
      <point x="315.0" y="556.0" type="qcurve" smooth="yes"/>
      <point x="315.0" y="351.0"/>
      <point x="528.0" y="126.0"/>
      <point x="738.0" y="126.0" type="qcurve" smooth="yes"/>
      <point x="958.0" y="126.0"/>
      <point x="1290.0" y="493.0"/>
      <point x="1290.0" y="878.0" type="qcurve" smooth="yes"/>
      <point x="1290.0" y="1083.0"/>
      <point x="1077.0" y="1308.0"/>
      <point x="867.0" y="1308.0" type="qcurve" smooth="yes"/>
      <point x="647.0" y="1308.0"/>
      <point x="315.0" y="941.0"/>
    </contour>
  </outline>
</glyph>
<glyph name="V" format="2">
  <advance width="1338"/>
  <unicode hex="0056"/>
  <outline>
    <contour>
      <point x="242.0" y="1368.0" type="line" smooth="yes"/>
      <point x="233.0" y="1434.0"/>
      <point x="284.0" y="1434.0" type="qcurve" smooth="yes"/>
      <point x="374.0" y="1434.0" type="line" smooth="yes"/>
      <point x="429.0" y="1434.0"/>
      <point x="435.0" y="1385.0" type="qcurve" smooth="yes"/>
      <point x="553.0" y="490.0" type="line" smooth="yes"/>
      <point x="561.0" y="431.0"/>
      <point x="575.0" y="235.0"/>
      <point x="575.0" y="173.0" type="qcurve"/>
      <point x="579.0" y="173.0" type="line"/>
      <point x="605.0" y="236.0"/>
      <point x="716.0" y="438.0"/>
      <point x="747.0" y="490.0" type="qcurve" smooth="yes"/>
      <point x="1279.0" y="1385.0" type="line" smooth="yes"/>
      <point x="1308.0" y="1434.0"/>
      <point x="1362.0" y="1434.0" type="qcurve" smooth="yes"/>
      <point x="1476.0" y="1434.0" type="line" smooth="yes"/>
      <point x="1528.0" y="1434.0"/>
      <point x="1488.0" y="1368.0" type="qcurve" smooth="yes"/>
      <point x="699.0" y="61.0" type="line" smooth="yes"/>
      <point x="662.0" y="0.0"/>
      <point x="619.0" y="0.0" type="qcurve" smooth="yes"/>
      <point x="479.0" y="0.0" type="line" smooth="yes"/>
      <point x="436.0" y="-0.0"/>
      <point x="427.0" y="61.0" type="qcurve" smooth="yes"/>
    </contour>
  </outline>
</glyph>
<glyph name="X" format="2">
  <advance width="1298"/>
  <unicode hex="0058"/>
  <outline>
    <contour>
      <point x="-42.0" y="0.0" type="line" smooth="yes"/>
      <point x="-106.0" y="0.0"/>
      <point x="-45.0" y="66.0" type="qcurve" smooth="yes"/>
      <point x="593.0" y="752.0" type="line"/>
      <point x="294.0" y="1368.0" type="line" smooth="yes"/>
      <point x="262.0" y="1434.0"/>
      <point x="327.0" y="1434.0" type="qcurve" smooth="yes"/>
      <point x="425.0" y="1434.0" type="line" smooth="yes"/>
      <point x="468.0" y="1434.0"/>
      <point x="486.0" y="1395.0" type="qcurve" smooth="yes"/>
      <point x="721.0" y="873.0" type="line"/>
      <point x="1177.0" y="1395.0" type="line" smooth="yes"/>
      <point x="1211.0" y="1434.0"/>
      <point x="1256.0" y="1434.0" type="qcurve" smooth="yes"/>
      <point x="1394.0" y="1434.0" type="line" smooth="yes"/>
      <point x="1458.0" y="1434.0"/>
      <point x="1397.0" y="1368.0" type="qcurve" smooth="yes"/>
      <point x="806.0" y="727.0" type="line"/>
      <point x="1132.0" y="66.0" type="line" smooth="yes"/>
      <point x="1165.0" y="0.0"/>
      <point x="1099.0" y="0.0" type="qcurve" smooth="yes"/>
      <point x="994.0" y="0.0" type="line" smooth="yes"/>
      <point x="950.0" y="0.0"/>
      <point x="933.0" y="39.0" type="qcurve" smooth="yes"/>
      <point x="679.0" y="607.0" type="line"/>
      <point x="182.0" y="39.0" type="line" smooth="yes"/>
      <point x="148.0" y="0.0"/>
      <point x="103.0" y="0.0" type="qcurve" smooth="yes"/>
    </contour>
  </outline>
</glyph>
<glyph name="asciicircum" format="2">
  <advance width="866"/>
  <unicode hex="005E"/>
  <outline>
    <contour>
      <point x="189.0" y="923.0" type="line" smooth="yes"/>
      <point x="160.0" y="942.0"/>
      <point x="183.0" y="979.0" type="qcurve" smooth="yes"/>
      <point x="446.0" y="1400.0" type="line" smooth="yes"/>
      <point x="467.0" y="1434.0"/>
      <point x="511.0" y="1434.0" type="qcurve" smooth="yes"/>
      <point x="553.0" y="1434.0" type="line" smooth="yes"/>
      <point x="597.0" y="1434.0"/>
      <point x="618.0" y="1400.0" type="qcurve" smooth="yes"/>
      <point x="881.0" y="979.0" type="line" smooth="yes"/>
      <point x="904.0" y="942.0"/>
      <point x="875.0" y="923.0" type="qcurve" smooth="yes"/>
      <point x="826.0" y="891.0" type="line" smooth="yes"/>
      <point x="797.0" y="872.0"/>
      <point x="772.0" y="911.0" type="qcurve" smooth="yes"/>
      <point x="533.0" y="1290.0" type="line"/>
      <point x="531.0" y="1290.0" type="line"/>
      <point x="292.0" y="911.0" type="line" smooth="yes"/>
      <point x="267.0" y="872.0"/>
      <point x="238.0" y="891.0" type="qcurve" smooth="yes"/>
    </contour>
  </outline>
</glyph>
<glyph name="underscore" format="2">
  <advance width="1100"/>
  <unicode hex="005F"/>
  <outline>
    <contour>
      <point x="-174.0" y="-390.0" type="line" smooth="yes"/>
      <point x="-219.0" y="-390.0"/>
      <point x="-219.0" y="-355.0" type="qcurve" smooth="yes"/>
      <point x="-219.0" y="-295.0" type="line" smooth="yes"/>
      <point x="-219.0" y="-260.0"/>
      <point x="-174.0" y="-260.0" type="qcurve" smooth="yes"/>
      <point x="884.0" y="-260.0" type="line" smooth="yes"/>
      <point x="929.0" y="-260.0"/>
      <point x="929.0" y="-295.0" type="qcurve" smooth="yes"/>
      <point x="929.0" y="-355.0" type="line" smooth="yes"/>
      <point x="929.0" y="-390.0"/>
      <point x="884.0" y="-390.0" type="qcurve" smooth="yes"/>
    </contour>
  </outline>
</glyph>
<glyph name="grave" format="2">
  <advance width="614"/>
  <unicode hex="0060"/>
  <outline>
    <contour>
      <point x="369.0" y="1383.0" type="line" smooth="yes"/>
      <point x="331.0" y="1435.0"/>
      <point x="391.0" y="1435.0" type="qcurve" smooth="yes"/>
      <point x="492.0" y="1435.0" type="line" smooth="yes"/>
      <point x="546.0" y="1435.0"/>
      <point x="567.0" y="1398.0" type="qcurve" smooth="yes"/>
      <point x="679.0" y="1203.0" type="line" smooth="yes"/>
      <point x="709.0" y="1150.0"/>
      <point x="660.0" y="1150.0" type="qcurve" smooth="yes"/>
      <point x="596.0" y="1150.0" type="line" smooth="yes"/>
      <point x="540.0" y="1150.0"/>
      <point x="519.0" y="1179.0" type="qcurve" smooth="yes"/>
    </contour>
  </outline>
</glyph>
<glyph name="g" format="2">
  <advance width="1119"/>
  <unicode hex="0067"/>
  <outline>
    <contour>
      <point x="70.0" y="379.0" type="qcurve" smooth="yes"/>
      <point x="70.0" y="634.0"/>
      <point x="392.0" y="1067.0"/>
      <point x="610.0" y="1067.0" type="qcurve" smooth="yes"/>
      <point x="721.0" y="1067.0"/>
      <point x="845.0" y="1000.0"/>
      <point x="896.0" y="932.0" type="qcurve"/>
      <point x="898.0" y="932.0" type="line"/>
      <point x="921.0" y="1005.0" type="line" smooth="yes"/>
      <point x="935.0" y="1050.0"/>
      <point x="970.0" y="1050.0" type="qcurve" smooth="yes"/>
      <point x="1054.0" y="1050.0" type="line" smooth="yes"/>
      <point x="1099.0" y="1050.0"/>
      <point x="1089.0" y="1005.0" type="qcurve" smooth="yes"/>
      <point x="855.0" y="-8.0" type="line" smooth="yes"/>
      <point x="808.0" y="-213.0"/>
      <point x="582.0" y="-417.0"/>
      <point x="323.0" y="-417.0" type="qcurve" smooth="yes"/>
      <point x="188.0" y="-417.0"/>
      <point x="16.0" y="-352.0"/>
      <point x="-16.0" y="-298.0" type="qcurve" smooth="yes"/>
      <point x="-37.0" y="-263.0"/>
      <point x="-12.0" y="-238.0" type="qcurve" smooth="yes"/>
      <point x="38.0" y="-190.0" type="line" smooth="yes"/>
      <point x="63.0" y="-165.0"/>
      <point x="94.0" y="-198.0" type="qcurve" smooth="yes"/>
      <point x="132.0" y="-238.0"/>
      <point x="248.0" y="-287.0"/>
      <point x="354.0" y="-287.0" type="qcurve" smooth="yes"/>
      <point x="478.0" y="-287.0"/>
      <point x="647.0" y="-152.0"/>
      <point x="684.0" y="11.0" type="qcurve" smooth="yes"/>
      <point x="705.0" y="104.0" type="line" smooth="yes"/>
      <point x="711.0" y="131.0"/>
      <point x="721.0" y="165.0" type="qcurve"/>
      <point x="719.0" y="165.0" type="line"/>
      <point x="675.0" y="86.0"/>
      <point x="489.0" y="-17.0"/>
      <point x="409.0" y="-17.0" type="qcurve" smooth="yes"/>
      <point x="219.0" y="-17.0"/>
      <point x="70.0" y="216.0"/>
    </contour>
    <contour>
      <point x="256.0" y="372.0" type="qcurve" smooth="yes"/>
      <point x="256.0" y="268.0"/>
      <point x="346.0" y="113.0"/>
      <point x="459.0" y="113.0" type="qcurve" smooth="yes"/>
      <point x="557.0" y="113.0"/>
      <point x="760.0" y="348.0"/>
      <point x="791.0" y="480.0" type="qcurve" smooth="yes"/>
      <point x="856.0" y="760.0" type="line"/>
      <point x="846.0" y="860.0"/>
      <point x="736.0" y="937.0"/>
      <point x="624.0" y="937.0" type="qcurve" smooth="yes"/>
      <point x="472.0" y="937.0"/>
      <point x="256.0" y="598.0"/>
    </contour>
  </outline>
</glyph>
<glyph name="l" format="2">
  <advance width="460"/>
  <unicode hex="006C"/>
  <outline>
    <contour>
      <point x="67.0" y="0.0" type="line" smooth="yes"/>
      <point x="22.0" y="0.0"/>
      <point x="32.0" y="45.0" type="qcurve" smooth="yes"/>
      <point x="321.0" y="1293.0" type="line" smooth="yes"/>
      <point x="325.0" y="1313.0"/>
      <point x="339.0" y="1331.0" type="qcurve" smooth="yes"/>
      <point x="439.0" y="1458.0" type="line" smooth="yes"/>
      <point x="466.0" y="1493.0"/>
      <point x="478.0" y="1493.0" type="qcurve" smooth="yes"/>
      <point x="513.0" y="1493.0" type="line" smooth="yes"/>
      <point x="543.0" y="1493.0"/>
      <point x="535.0" y="1458.0" type="qcurve" smooth="yes"/>
      <point x="208.0" y="45.0" type="line" smooth="yes"/>
      <point x="198.0" y="0.0"/>
      <point x="153.0" y="0.0" type="qcurve" smooth="yes"/>
    </contour>
  </outline>
</glyph>
<glyph name="o" format="2">
  <advance width="1148"/>
  <unicode hex="006F"/>
  <outline>
    <contour>
      <point x="68.0" y="402.0" type="qcurve" smooth="yes"/>
      <point x="68.0" y="666.0"/>
      <point x="395.0" y="1067.0"/>
      <point x="660.0" y="1067.0" type="qcurve" smooth="yes"/>
      <point x="894.0" y="1067.0"/>
      <point x="1080.0" y="798.0"/>
      <point x="1080.0" y="648.0" type="qcurve" smooth="yes"/>
      <point x="1080.0" y="384.0"/>
      <point x="753.0" y="-17.0"/>
      <point x="488.0" y="-17.0" type="qcurve" smooth="yes"/>
      <point x="254.0" y="-17.0"/>
      <point x="68.0" y="252.0"/>
    </contour>
    <contour>
      <point x="254.0" y="387.0" type="qcurve" smooth="yes"/>
      <point x="254.0" y="262.0"/>
      <point x="371.0" y="113.0"/>
      <point x="501.0" y="113.0" type="qcurve" smooth="yes"/>
      <point x="657.0" y="113.0"/>
      <point x="894.0" y="396.0"/>
      <point x="894.0" y="663.0" type="qcurve" smooth="yes"/>
      <point x="894.0" y="788.0"/>
      <point x="777.0" y="937.0"/>
      <point x="647.0" y="937.0" type="qcurve" smooth="yes"/>
      <point x="491.0" y="937.0"/>
      <point x="254.0" y="654.0"/>
    </contour>
  </outline>
</glyph>
<glyph name="p" format="2">
  <advance width="1119"/>
  <unicode hex="0070"/>
  <outline>
    <contour>
      <point x="-25.0" y="-400.0" type="line" smooth="yes"/>
      <point x="-70.0" y="-400.0"/>
      <point x="-60.0" y="-355.0" type="qcurve" smooth="yes"/>
      <point x="254.0" y="1005.0" type="line" smooth="yes"/>
      <point x="264.0" y="1050.0"/>
      <point x="309.0" y="1050.0" type="qcurve" smooth="yes"/>
      <point x="393.0" y="1050.0" type="line" smooth="yes"/>
      <point x="430.0" y="1050.0"/>
      <point x="422.0" y="1005.0" type="qcurve" smooth="yes"/>
      <point x="400.0" y="885.0" type="line"/>
      <point x="402.0" y="885.0" type="line"/>
      <point x="446.0" y="964.0"/>
      <point x="632.0" y="1067.0"/>
      <point x="712.0" y="1067.0" type="qcurve" smooth="yes"/>
      <point x="902.0" y="1067.0"/>
      <point x="1051.0" y="834.0"/>
      <point x="1051.0" y="671.0" type="qcurve" smooth="yes"/>
      <point x="1051.0" y="416.0"/>
      <point x="729.0" y="-17.0"/>
      <point x="511.0" y="-17.0" type="qcurve" smooth="yes"/>
      <point x="400.0" y="-17.0"/>
      <point x="276.0" y="50.0"/>
      <point x="225.0" y="118.0" type="qcurve"/>
      <point x="223.0" y="118.0" type="line"/>
      <point x="219.0" y="90.0"/>
      <point x="211.0" y="57.0" type="qcurve" smooth="yes"/>
      <point x="116.0" y="-355.0" type="line" smooth="yes"/>
      <point x="106.0" y="-400.0"/>
      <point x="61.0" y="-400.0" type="qcurve" smooth="yes"/>
    </contour>
    <contour>
      <point x="265.0" y="290.0" type="line"/>
      <point x="275.0" y="190.0"/>
      <point x="385.0" y="113.0"/>
      <point x="497.0" y="113.0" type="qcurve" smooth="yes"/>
      <point x="649.0" y="113.0"/>
      <point x="865.0" y="452.0"/>
      <point x="865.0" y="678.0" type="qcurve" smooth="yes"/>
      <point x="865.0" y="782.0"/>
      <point x="775.0" y="937.0"/>
      <point x="662.0" y="937.0" type="qcurve" smooth="yes"/>
      <point x="564.0" y="937.0"/>
      <point x="361.0" y="702.0"/>
      <point x="330.0" y="570.0" type="qcurve" smooth="yes"/>
    </contour>
  </outline>
</glyph>
<glyph name="t" format="2">
  <advance width="757"/>
  <unicode hex="0074"/>
  <outline>
    <contour>
      <point x="183.0" y="918.0" type="line" smooth="yes"/>
      <point x="138.0" y="918.0"/>
      <point x="146.0" y="953.0" type="qcurve" smooth="yes"/>
      <point x="160.0" y="1015.0" type="line" smooth="yes"/>
      <point x="168.0" y="1050.0"/>
      <point x="213.0" y="1050.0" type="qcurve" smooth="yes"/>
      <point x="331.0" y="1050.0" type="line"/>
      <point x="352.0" y="1140.0" type="line" smooth="yes"/>
      <point x="357.0" y="1159.0"/>
      <point x="371.0" y="1178.0" type="qcurve" smooth="yes"/>
      <point x="470.0" y="1305.0" type="line" smooth="yes"/>
      <point x="497.0" y="1340.0"/>
      <point x="509.0" y="1340.0" type="qcurve" smooth="yes"/>
      <point x="544.0" y="1340.0" type="line" smooth="yes"/>
      <point x="574.0" y="1340.0"/>
      <point x="566.0" y="1305.0" type="qcurve" smooth="yes"/>
      <point x="507.0" y="1050.0" type="line"/>
      <point x="720.0" y="1050.0" type="line" smooth="yes"/>
      <point x="765.0" y="1050.0"/>
      <point x="757.0" y="1015.0" type="qcurve" smooth="yes"/>
      <point x="743.0" y="953.0" type="line" smooth="yes"/>
      <point x="735.0" y="918.0"/>
      <point x="690.0" y="918.0" type="qcurve" smooth="yes"/>
      <point x="477.0" y="918.0" type="line"/>
      <point x="330.0" y="281.0" type="line" smooth="yes"/>
      <point x="306.0" y="176.0"/>
      <point x="355.0" y="113.0"/>
      <point x="390.0" y="113.0" type="qcurve" smooth="yes"/>
      <point x="436.0" y="113.0"/>
      <point x="534.0" y="148.0"/>
      <point x="551.0" y="159.0" type="qcurve" smooth="yes"/>
      <point x="573.0" y="173.0"/>
      <point x="580.0" y="153.0" type="qcurve" smooth="yes"/>
      <point x="606.0" y="81.0" type="line" smooth="yes"/>
      <point x="612.0" y="63.0"/>
      <point x="595.0" y="52.0" type="qcurve" smooth="yes"/>
      <point x="554.0" y="26.0"/>
      <point x="397.0" y="-17.0"/>
      <point x="308.0" y="-17.0" type="qcurve" smooth="yes"/>
      <point x="220.0" y="-17.0"/>
      <point x="119.0" y="133.0"/>
      <point x="151.0" y="270.0" type="qcurve" smooth="yes"/>
      <point x="301.0" y="918.0" type="line"/>
    </contour>
  </outline>
</glyph>
<glyph name="w" format="2">
  <advance width="1444"/>
  <unicode hex="0077"/>
  <outline>
    <contour>
      <point x="156.0" y="1001.0" type="line" smooth="yes"/>
      <point x="154.0" y="1050.0"/>
      <point x="194.0" y="1050.0" type="qcurve" smooth="yes"/>
      <point x="291.0" y="1050.0" type="line" smooth="yes"/>
      <point x="327.0" y="1050.0"/>
      <point x="327.0" y="1011.0" type="qcurve"/>
      <point x="324.0" y="351.0" type="line"/>
      <point x="324.0" y="306.0"/>
      <point x="322.0" y="200.0"/>
      <point x="322.0" y="169.0" type="qcurve"/>
      <point x="326.0" y="169.0" type="line"/>
      <point x="337.0" y="197.0"/>
      <point x="391.0" y="316.0"/>
      <point x="409.0" y="351.0" type="qcurve" smooth="yes"/>
      <point x="737.0" y="1011.0" type="line" smooth="yes"/>
      <point x="756.0" y="1050.0"/>
      <point x="791.0" y="1050.0" type="qcurve" smooth="yes"/>
      <point x="881.0" y="1050.0" type="line" smooth="yes"/>
      <point x="916.0" y="1050.0"/>
      <point x="917.0" y="1011.0" type="qcurve" smooth="yes"/>
      <point x="941.0" y="351.0" type="line" smooth="yes"/>
      <point x="942.0" y="315.0"/>
      <point x="940.0" y="218.0"/>
      <point x="940.0" y="169.0" type="qcurve"/>
      <point x="944.0" y="169.0" type="line"/>
      <point x="957.0" y="198.0"/>
      <point x="1014.0" y="322.0"/>
      <point x="1028.0" y="351.0" type="qcurve" smooth="yes"/>
      <point x="1327.0" y="1011.0" type="line" smooth="yes"/>
      <point x="1345.0" y="1050.0"/>
      <point x="1381.0" y="1050.0" type="qcurve" smooth="yes"/>
      <point x="1494.0" y="1050.0" type="line" smooth="yes"/>
      <point x="1534.0" y="1050.0"/>
      <point x="1510.0" y="1001.0" type="qcurve" smooth="yes"/>
      <point x="1045.0" y="61.0" type="line" smooth="yes"/>
      <point x="1015.0" y="0.0"/>
      <point x="977.0" y="0.0" type="qcurve" smooth="yes"/>
      <point x="857.0" y="0.0" type="line" smooth="yes"/>
      <point x="819.0" y="-0.0"/>
      <point x="817.0" y="61.0" type="qcurve" smooth="yes"/>
      <point x="800.0" y="722.0" type="line" smooth="yes"/>
      <point x="799.0" y="780.0"/>
      <point x="802.0" y="848.0"/>
      <point x="805.0" y="873.0" type="qcurve"/>
      <point x="803.0" y="873.0" type="line"/>
      <point x="794.0" y="848.0"/>
      <point x="760.0" y="766.0"/>
      <point x="738.0" y="722.0" type="qcurve" smooth="yes"/>
      <point x="415.0" y="61.0" type="line" smooth="yes"/>
      <point x="385.0" y="0.0"/>
      <point x="347.0" y="0.0" type="qcurve" smooth="yes"/>
      <point x="227.0" y="0.0" type="line" smooth="yes"/>
      <point x="189.0" y="-0.0"/>
      <point x="187.0" y="61.0" type="qcurve" smooth="yes"/>
    </contour>
  </outline>
</glyph>
<glyph name="x" format="2">
  <advance width="968"/>
  <unicode hex="0078"/>
  <outline>
    <contour>
      <point x="-44.0" y="0.0" type="line" smooth="yes"/>
      <point x="-109.0" y="0.0"/>
      <point x="-56.0" y="59.0" type="qcurve" smooth="yes"/>
      <point x="396.0" y="565.0" type="line"/>
      <point x="203.0" y="991.0" type="line" smooth="yes"/>
      <point x="176.0" y="1050.0"/>
      <point x="242.0" y="1050.0" type="qcurve" smooth="yes"/>
      <point x="316.0" y="1050.0" type="line" smooth="yes"/>
      <point x="352.0" y="1050.0"/>
      <point x="363.0" y="1024.0" type="qcurve" smooth="yes"/>
      <point x="511.0" y="676.0" type="line"/>
      <point x="798.0" y="1024.0" type="line" smooth="yes"/>
      <point x="819.0" y="1050.0"/>
      <point x="857.0" y="1050.0" type="qcurve" smooth="yes"/>
      <point x="966.0" y="1050.0" type="line" smooth="yes"/>
      <point x="1032.0" y="1050.0"/>
      <point x="979.0" y="991.0" type="qcurve" smooth="yes"/>
      <point x="579.0" y="542.0" type="line"/>
      <point x="800.0" y="59.0" type="line" smooth="yes"/>
      <point x="827.0" y="0.0"/>
      <point x="760.0" y="0.0" type="qcurve" smooth="yes"/>
      <point x="682.0" y="0.0" type="line" smooth="yes"/>
      <point x="646.0" y="0.0"/>
      <point x="635.0" y="26.0" type="qcurve" smooth="yes"/>
      <point x="465.0" y="431.0" type="line"/>
      <point x="127.0" y="26.0" type="line" smooth="yes"/>
      <point x="105.0" y="0.0"/>
      <point x="68.0" y="0.0" type="qcurve" smooth="yes"/>
    </contour>
  </outline>
</glyph>
<glyph name="braceleft" format="2">
  <advance width="776"/>
  <unicode hex="007B"/>
  <outline>
    <contour>
      <point x="116.0" y="479.0" type="qcurve" smooth="yes"/>
      <point x="81.0" y="479.0"/>
      <point x="91.0" y="524.0" type="qcurve" smooth="yes"/>
      <point x="100.0" y="564.0" type="line" smooth="yes"/>
      <point x="111.0" y="609.0"/>
      <point x="146.0" y="609.0" type="qcurve" smooth="yes"/>
      <point x="210.0" y="609.0"/>
      <point x="400.0" y="738.0"/>
      <point x="445.0" y="931.0" type="qcurve" smooth="yes"/>
      <point x="499.0" y="1166.0" type="line" smooth="yes"/>
      <point x="538.0" y="1336.0"/>
      <point x="660.0" y="1496.0"/>
      <point x="886.0" y="1496.0" type="qcurve" smooth="yes"/>
      <point x="931.0" y="1496.0"/>
      <point x="923.0" y="1461.0" type="qcurve" smooth="yes"/>
      <point x="909.0" y="1401.0" type="line" smooth="yes"/>
      <point x="901.0" y="1366.0"/>
      <point x="856.0" y="1366.0" type="qcurve" smooth="yes"/>
      <point x="758.0" y="1366.0"/>
      <point x="703.0" y="1283.0"/>
      <point x="681.0" y="1189.0" type="qcurve" smooth="yes"/>
      <point x="614.0" y="903.0" type="line" smooth="yes"/>
      <point x="560.0" y="669.0"/>
      <point x="356.0" y="551.0"/>
      <point x="285.0" y="545.0" type="qcurve"/>
      <point x="284.0" y="543.0" type="line"/>
      <point x="359.0" y="524.0"/>
      <point x="486.0" y="345.0"/>
      <point x="449.0" y="185.0" type="qcurve" smooth="yes"/>
      <point x="383.0" y="-101.0" type="line" smooth="yes"/>
      <point x="361.0" y="-196.0"/>
      <point x="379.0" y="-278.0"/>
      <point x="477.0" y="-278.0" type="qcurve" smooth="yes"/>
      <point x="522.0" y="-278.0"/>
      <point x="514.0" y="-313.0" type="qcurve" smooth="yes"/>
      <point x="500.0" y="-373.0" type="line" smooth="yes"/>
      <point x="492.0" y="-408.0"/>
      <point x="447.0" y="-408.0" type="qcurve" smooth="yes"/>
      <point x="267.0" y="-408.0"/>
      <point x="182.0" y="-210.0"/>
      <point x="212.0" y="-78.0" type="qcurve" smooth="yes"/>
      <point x="266.0" y="157.0" type="line" smooth="yes"/>
      <point x="307.0" y="333.0"/>
      <point x="206.0" y="479.0"/>
    </contour>
  </outline>
</glyph>
<glyph name="bar" format="2">
  <advance width="590"/>
  <unicode hex="007C"/>
  <outline>
    <contour>
      <point x="267.0" y="-440.0" type="line" smooth="yes"/>
      <point x="232.0" y="-440.0"/>
      <point x="232.0" y="-395.0" type="qcurve" smooth="yes"/>
      <point x="232.0" y="1451.0" type="line" smooth="yes"/>
      <point x="232.0" y="1496.0"/>
      <point x="267.0" y="1496.0" type="qcurve" smooth="yes"/>
      <point x="327.0" y="1496.0" type="line" smooth="yes"/>
      <point x="362.0" y="1496.0"/>
      <point x="362.0" y="1451.0" type="qcurve" smooth="yes"/>
      <point x="362.0" y="-395.0" type="line" smooth="yes"/>
      <point x="362.0" y="-440.0"/>
      <point x="327.0" y="-440.0" type="qcurve" smooth="yes"/>
    </contour>
  </outline>
</glyph>
<glyph name="currency" format="2">
  <advance width="1110"/>
  <unicode hex="00A4"/>
  <outline>
    <contour>
      <point x="140.0" y="289.0" type="line" smooth="yes"/>
      <point x="114.0" y="313.0"/>
      <point x="145.0" y="346.0" type="qcurve" smooth="yes"/>
      <point x="276.0" y="486.0" type="line"/>
      <point x="202.0" y="592.0"/>
      <point x="202.0" y="728.0" type="qcurve" smooth="yes"/>
      <point x="202.0" y="864.0"/>
      <point x="276.0" y="970.0" type="qcurve"/>
      <point x="145.0" y="1110.0" type="line" smooth="yes"/>
      <point x="114.0" y="1143.0"/>
      <point x="140.0" y="1167.0" type="qcurve" smooth="yes"/>
      <point x="177.0" y="1201.0" type="line" smooth="yes"/>
      <point x="203.0" y="1225.0"/>
      <point x="233.0" y="1192.0" type="qcurve" smooth="yes"/>
      <point x="357.0" y="1059.0" type="line"/>
      <point x="461.0" y="1144.0"/>
      <point x="605.0" y="1144.0" type="qcurve" smooth="yes"/>
      <point x="749.0" y="1144.0"/>
      <point x="853.0" y="1059.0" type="qcurve"/>
      <point x="977.0" y="1192.0" type="line" smooth="yes"/>
      <point x="1007.0" y="1225.0"/>
      <point x="1033.0" y="1201.0" type="qcurve" smooth="yes"/>
      <point x="1070.0" y="1167.0" type="line" smooth="yes"/>
      <point x="1096.0" y="1143.0"/>
      <point x="1065.0" y="1110.0" type="qcurve" smooth="yes"/>
      <point x="934.0" y="970.0" type="line"/>
      <point x="1008.0" y="864.0"/>
      <point x="1008.0" y="728.0" type="qcurve" smooth="yes"/>
      <point x="1008.0" y="592.0"/>
      <point x="934.0" y="486.0" type="qcurve"/>
      <point x="1065.0" y="346.0" type="line" smooth="yes"/>
      <point x="1096.0" y="313.0"/>
      <point x="1070.0" y="289.0" type="qcurve" smooth="yes"/>
      <point x="1033.0" y="255.0" type="line" smooth="yes"/>
      <point x="1007.0" y="231.0"/>
      <point x="977.0" y="264.0" type="qcurve" smooth="yes"/>
      <point x="853.0" y="397.0" type="line"/>
      <point x="749.0" y="312.0"/>
      <point x="605.0" y="312.0" type="qcurve" smooth="yes"/>
      <point x="461.0" y="312.0"/>
      <point x="357.0" y="397.0" type="qcurve"/>
      <point x="233.0" y="264.0" type="line" smooth="yes"/>
      <point x="203.0" y="231.0"/>
      <point x="177.0" y="255.0" type="qcurve" smooth="yes"/>
    </contour>
    <contour>
      <point x="335.0" y="728.0" type="qcurve" smooth="yes"/>
      <point x="335.0" y="611.0"/>
      <point x="485.0" y="442.0"/>
      <point x="605.0" y="442.0" type="qcurve" smooth="yes"/>
      <point x="725.0" y="442.0"/>
      <point x="875.0" y="611.0"/>
      <point x="875.0" y="728.0" type="qcurve" smooth="yes"/>
      <point x="875.0" y="845.0"/>
      <point x="725.0" y="1014.0"/>
      <point x="605.0" y="1014.0" type="qcurve" smooth="yes"/>
      <point x="485.0" y="1014.0"/>
      <point x="335.0" y="845.0"/>
    </contour>
  </outline>
</glyph>
<glyph name="ordfeminine" format="2">
  <advance width="750"/>
  <unicode hex="00AA"/>
  <outline>
    <contour>
      <point x="188.0" y="1019.0" type="qcurve" smooth="yes"/>
      <point x="188.0" y="1208.0"/>
      <point x="430.0" y="1493.0"/>
      <point x="584.0" y="1493.0" type="qcurve" smooth="yes"/>
      <point x="645.0" y="1493.0"/>
      <point x="711.0" y="1444.0"/>
      <point x="730.0" y="1411.0" type="qcurve"/>
      <point x="731.0" y="1411.0" type="line"/>
      <point x="746.0" y="1452.0" type="line" smooth="yes"/>
      <point x="757.0" y="1481.0"/>
      <point x="779.0" y="1481.0" type="qcurve" smooth="yes"/>
      <point x="846.0" y="1481.0" type="line" smooth="yes"/>
      <point x="877.0" y="1481.0"/>
      <point x="870.0" y="1452.0" type="qcurve" smooth="yes"/>
      <point x="723.0" y="828.0" type="line" smooth="yes"/>
      <point x="716.0" y="799.0"/>
      <point x="686.0" y="799.0" type="qcurve" smooth="yes"/>
      <point x="620.0" y="799.0" type="line" smooth="yes"/>
      <point x="591.0" y="799.0"/>
      <point x="597.0" y="828.0" type="qcurve" smooth="yes"/>
      <point x="614.0" y="906.0" type="line"/>
      <point x="612.0" y="906.0" type="line"/>
      <point x="579.0" y="864.0"/>
      <point x="468.0" y="788.0"/>
      <point x="403.0" y="788.0" type="qcurve" smooth="yes"/>
      <point x="304.0" y="788.0"/>
      <point x="188.0" y="901.0"/>
    </contour>
    <contour>
      <point x="326.0" y="1015.0" type="qcurve" smooth="yes"/>
      <point x="326.0" y="972.0"/>
      <point x="374.0" y="896.0"/>
      <point x="437.0" y="896.0" type="qcurve" smooth="yes"/>
      <point x="496.0" y="896.0"/>
      <point x="641.0" y="1044.0"/>
      <point x="660.0" y="1121.0" type="qcurve" smooth="yes"/>
      <point x="700.0" y="1285.0" type="line"/>
      <point x="690.0" y="1346.0"/>
      <point x="624.0" y="1385.0"/>
      <point x="587.0" y="1385.0" type="qcurve" smooth="yes"/>
      <point x="492.0" y="1385.0"/>
      <point x="326.0" y="1168.0"/>
    </contour>
  </outline>
</glyph>
<glyph name="macron" format="2">
  <advance width="614"/>
  <unicode hex="00AF"/>
  <outline>
    <contour>
      <point x="209.0" y="1240.0" type="line" smooth="yes"/>
      <point x="164.0" y="1240.0"/>
      <point x="172.0" y="1275.0" type="qcurve" smooth="yes"/>
      <point x="182.0" y="1315.0" type="line" smooth="yes"/>
      <point x="190.0" y="1350.0"/>
      <point x="235.0" y="1350.0" type="qcurve" smooth="yes"/>
      <point x="763.0" y="1350.0" type="line" smooth="yes"/>
      <point x="808.0" y="1350.0"/>
      <point x="800.0" y="1315.0" type="qcurve" smooth="yes"/>
      <point x="790.0" y="1275.0" type="line" smooth="yes"/>
      <point x="782.0" y="1240.0"/>
      <point x="737.0" y="1240.0" type="qcurve" smooth="yes"/>
    </contour>
  </outline>
</glyph>
<glyph name="uni00B2" format="2">
  <advance width="590"/>
  <unicode hex="00B2"/>
  <outline>
    <contour>
      <point x="121.0" y="712.0" type="line" smooth="yes"/>
      <point x="94.0" y="712.0"/>
      <point x="99.0" y="735.0" type="qcurve" smooth="yes"/>
      <point x="108.0" y="776.0" type="line" smooth="yes"/>
      <point x="112.0" y="796.0"/>
      <point x="134.0" y="814.0" type="qcurve" smooth="yes"/>
      <point x="421.0" y="1049.0" type="line" smooth="yes"/>
      <point x="512.0" y="1123.0"/>
      <point x="577.0" y="1221.0"/>
      <point x="577.0" y="1278.0" type="qcurve" smooth="yes"/>
      <point x="577.0" y="1322.0"/>
      <point x="520.0" y="1366.0"/>
      <point x="473.0" y="1366.0" type="qcurve" smooth="yes"/>
      <point x="432.0" y="1366.0"/>
      <point x="352.0" y="1312.0"/>
      <point x="323.0" y="1255.0" type="qcurve" smooth="yes"/>
      <point x="308.0" y="1225.0"/>
      <point x="292.0" y="1232.0" type="qcurve" smooth="yes"/>
      <point x="241.0" y="1255.0" type="line" smooth="yes"/>
      <point x="219.0" y="1265.0"/>
      <point x="234.0" y="1299.0" type="qcurve" smooth="yes"/>
      <point x="266.0" y="1369.0"/>
      <point x="400.0" y="1466.0"/>
      <point x="481.0" y="1466.0" type="qcurve" smooth="yes"/>
      <point x="594.0" y="1466.0"/>
      <point x="701.0" y="1370.0"/>
      <point x="701.0" y="1290.0" type="qcurve" smooth="yes"/>
      <point x="701.0" y="1226.0"/>
      <point x="632.0" y="1094.0"/>
      <point x="513.0" y="999.0" type="qcurve" smooth="yes"/>
      <point x="290.0" y="820.0" type="line"/>
      <point x="290.0" y="818.0" type="line"/>
      <point x="311.0" y="819.0"/>
      <point x="331.0" y="819.0" type="qcurve" smooth="yes"/>
      <point x="579.0" y="819.0" type="line" smooth="yes"/>
      <point x="608.0" y="819.0"/>
      <point x="603.0" y="796.0" type="qcurve" smooth="yes"/>
      <point x="589.0" y="735.0" type="line" smooth="yes"/>
      <point x="584.0" y="712.0"/>
      <point x="554.0" y="712.0" type="qcurve" smooth="yes"/>
    </contour>
  </outline>
</glyph>
<glyph name="uni00B5" format="2">
  <advance width="1160"/>
  <unicode hex="00B5"/>
  <outline>
    <contour>
      <point x="-23.0" y="-417.0" type="line" smooth="yes"/>
      <point x="-68.0" y="-417.0"/>
      <point x="-58.0" y="-372.0" type="qcurve" smooth="yes"/>
      <point x="260.0" y="1004.0" type="line" smooth="yes"/>
      <point x="270.0" y="1049.0"/>
      <point x="315.0" y="1049.0" type="qcurve" smooth="yes"/>
      <point x="401.0" y="1049.0" type="line" smooth="yes"/>
      <point x="446.0" y="1049.0"/>
      <point x="436.0" y="1004.0" type="qcurve" smooth="yes"/>
      <point x="309.0" y="455.0" type="line" smooth="yes"/>
      <point x="273.0" y="301.0"/>
      <point x="352.0" y="112.0"/>
      <point x="472.0" y="112.0" type="qcurve" smooth="yes"/>
      <point x="568.0" y="112.0"/>
      <point x="790.0" y="296.0"/>
      <point x="827.0" y="456.0" type="qcurve" smooth="yes"/>
      <point x="954.0" y="1005.0" type="line" smooth="yes"/>
      <point x="964.0" y="1050.0"/>
      <point x="1009.0" y="1050.0" type="qcurve" smooth="yes"/>
      <point x="1095.0" y="1050.0" type="line" smooth="yes"/>
      <point x="1140.0" y="1050.0"/>
      <point x="1130.0" y="1005.0" type="qcurve" smooth="yes"/>
      <point x="908.0" y="45.0" type="line" smooth="yes"/>
      <point x="898.0" y="0.0"/>
      <point x="853.0" y="0.0" type="qcurve" smooth="yes"/>
      <point x="769.0" y="0.0" type="line" smooth="yes"/>
      <point x="723.0" y="0.0"/>
      <point x="734.0" y="45.0" type="qcurve" smooth="yes"/>
      <point x="753.0" y="125.0" type="line"/>
      <point x="749.0" y="125.0" type="line"/>
      <point x="665.0" y="46.0"/>
      <point x="531.0" y="-18.0"/>
      <point x="454.0" y="-18.0" type="qcurve" smooth="yes"/>
      <point x="393.0" y="-18.0"/>
      <point x="273.0" y="46.0"/>
      <point x="235.0" y="124.0" type="qcurve"/>
      <point x="231.0" y="124.0" type="line"/>
      <point x="226.0" y="95.0"/>
      <point x="219.0" y="64.0" type="qcurve" smooth="yes"/>
      <point x="118.0" y="-372.0" type="line" smooth="yes"/>
      <point x="108.0" y="-417.0"/>
      <point x="63.0" y="-417.0" type="qcurve" smooth="yes"/>
    </contour>
  </outline>
</glyph>
<glyph name="paragraph" format="2">
  <advance width="1022"/>
  <unicode hex="00B6"/>
  <outline>
    <contour>
      <point x="83.0" y="1084.0" type="qcurve" smooth="yes"/>
      <point x="83.0" y="1226.0"/>
      <point x="291.0" y="1434.0"/>
      <point x="433.0" y="1434.0" type="qcurve" smooth="yes"/>
      <point x="528.0" y="1434.0" type="line" smooth="yes"/>
      <point x="563.0" y="1434.0"/>
      <point x="563.0" y="1389.0" type="qcurve" smooth="yes"/>
      <point x="563.0" y="-325.0" type="line" smooth="yes"/>
      <point x="563.0" y="-370.0"/>
      <point x="528.0" y="-370.0" type="qcurve" smooth="yes"/>
      <point x="468.0" y="-370.0" type="line" smooth="yes"/>
      <point x="433.0" y="-370.0"/>
      <point x="433.0" y="-325.0" type="qcurve" smooth="yes"/>
      <point x="433.0" y="734.0" type="line"/>
      <point x="291.0" y="734.0"/>
      <point x="83.0" y="942.0"/>
    </contour>
    <contour>
      <point x="788.0" y="-370.0" type="line" smooth="yes"/>
      <point x="753.0" y="-370.0"/>
      <point x="753.0" y="-325.0" type="qcurve" smooth="yes"/>
      <point x="753.0" y="1389.0" type="line" smooth="yes"/>
      <point x="753.0" y="1434.0"/>
      <point x="788.0" y="1434.0" type="qcurve" smooth="yes"/>
      <point x="848.0" y="1434.0" type="line" smooth="yes"/>
      <point x="883.0" y="1434.0"/>
      <point x="883.0" y="1389.0" type="qcurve" smooth="yes"/>
      <point x="883.0" y="-325.0" type="line" smooth="yes"/>
      <point x="883.0" y="-370.0"/>
      <point x="848.0" y="-370.0" type="qcurve" smooth="yes"/>
    </contour>
  </outline>
</glyph>
<glyph name="periodcentered" format="2">
  <advance width="600"/>
  <unicode hex="00B7"/>
  <outline>
    <contour>
      <point x="291.0" y="619.0" type="line" smooth="yes"/>
      <point x="246.0" y="619.0"/>
      <point x="246.0" y="664.0" type="qcurve" smooth="yes"/>
      <point x="246.0" y="786.0" type="line" smooth="yes"/>
      <point x="246.0" y="831.0"/>
      <point x="291.0" y="831.0" type="qcurve" smooth="yes"/>
      <point x="403.0" y="831.0" type="line" smooth="yes"/>
      <point x="448.0" y="831.0"/>
      <point x="448.0" y="786.0" type="qcurve" smooth="yes"/>
      <point x="448.0" y="664.0" type="line" smooth="yes"/>
      <point x="448.0" y="619.0"/>
      <point x="403.0" y="619.0" type="qcurve" smooth="yes"/>
    </contour>
  </outline>
</glyph>
<glyph name="Aogonek" format="2">
  <advance width="1360"/>
  <unicode hex="0104"/>
  <outline>
    <contour>
      <point x="-47.0" y="0.0" type="line" smooth="yes"/>
      <point x="-97.88289642333984" y="0.0"/>
      <point x="-59.0" y="66.0" type="qcurve" smooth="yes"/>
      <point x="711.0" y="1373.0" type="line" smooth="yes"/>
      <point x="746.93701171875" y="1434.0"/>
      <point x="791.0" y="1434.0" type="qcurve" smooth="yes"/>
      <point x="931.0" y="1434.0" type="line" smooth="yes"/>
      <point x="972.4520263671875" y="1434.0"/>
      <point x="983.0" y="1373.0" type="qcurve" smooth="yes"/>
      <point x="1209.0" y="66.0" type="line" smooth="yes"/>
      <point x="1216.300048828125" y="19.3164005279541"/>
      <point x="1185.5" y="0.0" type="qcurve" smooth="yes"/>
      <point x="1156.0" y="-18.5"/>
      <point x="935.8939819335938" y="-179.0"/>
      <point x="935.8939819335938" y="-233.0" type="qcurve" smooth="yes"/>
      <point x="935.8939819335938" y="-260.0"/>
      <point x="965.8939819335938" y="-287.0"/>
      <point x="1001.8900146484375" y="-287.0" type="qcurve" smooth="yes"/>
      <point x="1044.8900146484375" y="-287.0"/>
      <point x="1074.8900146484375" y="-281.0" type="qcurve" smooth="yes"/>
      <point x="1099.7900390625" y="-276.0220031738281"/>
      <point x="1101.8900146484375" y="-303.0" type="qcurve" smooth="yes"/>
      <point x="1107.8900146484375" y="-380.0" type="line" smooth="yes"/>
      <point x="1109.77001953125" y="-404.0260009765625"/>
      <point x="1089.8900146484375" y="-408.0" type="qcurve" smooth="yes"/>
      <point x="1044.8800048828125" y="-417.0"/>
      <point x="971.8939819335938" y="-417.0" type="qcurve" smooth="yes"/>
      <point x="871.8939819335938" y="-417.0"/>
      <point x="775.8939819335938" y="-342.0"/>
      <point x="775.8939819335938" y="-284.0" type="qcurve" smooth="yes"/>
      <point x="775.8939819335938" y="-232.0"/>
      <point x="813.64697265625" y="-142.47000122070312"/>
      <point x="954.5139770507812" y="-37.647701263427734"/>
      <point x="980.0" y="-20.0" type="qcurve" smooth="yes"/>
      <point x="1021.8900146484375" y="9.004449844360352"/>
      <point x="1015.0" y="49.0" type="qcurve" smooth="yes"/>
      <point x="958.0" y="380.0" type="line"/>
      <point x="343.0" y="380.0" type="line"/>
      <point x="148.0" y="49.0" type="line" smooth="yes"/>
      <point x="119.13300323486328" y="-6.064390163373901e-06"/>
      <point x="65.0" y="0.0" type="qcurve" smooth="yes"/>
    </contour>
    <contour>
      <point x="441.0" y="544.0" type="line"/>
      <point x="929.0" y="544.0" type="line"/>
      <point x="859.0" y="944.0" type="line" smooth="yes"/>
      <point x="846.0" y="1016.0"/>
      <point x="830.0" y="1187.0"/>
      <point x="830.0" y="1261.0" type="qcurve"/>
      <point x="826.0" y="1261.0" type="line"/>
      <point x="808.0" y="1190.0"/>
      <point x="732.0" y="1042.0"/>
      <point x="675.0" y="944.0" type="qcurve" smooth="yes"/>
    </contour>
  </outline>
</glyph>
<glyph name="aogonek" format="2">
  <advance width="1099"/>
  <unicode hex="0105"/>
  <outline>
    <contour>
      <point x="66.0" y="339.0" type="qcurve" smooth="yes"/>
      <point x="66.0" y="614.0"/>
      <point x="439.0" y="1067.0"/>
      <point x="644.0" y="1067.0" type="qcurve" smooth="yes"/>
      <point x="734.0" y="1067.0"/>
      <point x="850.0" y="992.0"/>
      <point x="878.0" y="942.0" type="qcurve"/>
      <point x="880.0" y="942.0" type="line"/>
      <point x="901.0" y="1005.0" type="line" smooth="yes"/>
      <point x="916.0" y="1050.0"/>
      <point x="950.0" y="1050.0" type="qcurve" smooth="yes"/>
      <point x="1034.0" y="1050.0" type="line" smooth="yes"/>
      <point x="1079.0" y="1050.0"/>
      <point x="1069.0" y="1005.0" type="qcurve" smooth="yes"/>
      <point x="847.0" y="45.0" type="line" smooth="yes"/>
      <point x="840.0" y="15.0"/>
      <point x="820.0" y="0.0" type="qcurve" smooth="yes"/>
      <point x="726.0" y="-70.0"/>
      <point x="581.0" y="-186.0"/>
      <point x="581.0" y="-233.0" type="qcurve" smooth="yes"/>
      <point x="581.0" y="-260.0"/>
      <point x="611.0" y="-287.0"/>
      <point x="647.0" y="-287.0" type="qcurve" smooth="yes"/>
      <point x="690.0" y="-287.0"/>
      <point x="720.0" y="-281.0" type="qcurve" smooth="yes"/>
      <point x="745.0" y="-276.0"/>
      <point x="747.0" y="-303.0" type="qcurve" smooth="yes"/>
      <point x="753.0" y="-380.0" type="line" smooth="yes"/>
      <point x="755.0" y="-404.0"/>
      <point x="735.0" y="-408.0" type="qcurve" smooth="yes"/>
      <point x="677.0" y="-417.0"/>
      <point x="617.0" y="-417.0" type="qcurve" smooth="yes"/>
      <point x="517.0" y="-417.0"/>
      <point x="421.0" y="-342.0"/>
      <point x="421.0" y="-284.0" type="qcurve" smooth="yes"/>
      <point x="421.0" y="-232.0"/>
      <point x="456.0" y="-149.0"/>
      <point x="548.0" y="-72.0"/>
      <point x="649.0" y="-6.0" type="qcurve" smooth="yes"/>
      <point x="668.0" y="7.0"/>
      <point x="676.0" y="45.0" type="qcurve" smooth="yes"/>
      <point x="701.0" y="165.0" type="line"/>
      <point x="699.0" y="165.0" type="line"/>
      <point x="650.0" y="100.0"/>
      <point x="487.0" y="-17.0"/>
      <point x="387.0" y="-17.0" type="qcurve" smooth="yes"/>
      <point x="242.0" y="-17.0"/>
      <point x="66.0" y="158.0"/>
    </contour>
    <contour>
      <point x="252.0" y="332.0" type="qcurve" smooth="yes"/>
      <point x="252.0" y="266.0"/>
      <point x="323.0" y="113.0"/>
      <point x="433.0" y="113.0" type="qcurve" smooth="yes"/>
      <point x="523.0" y="113.0"/>
      <point x="741.0" y="351.0"/>
      <point x="771.0" y="480.0" type="qcurve" smooth="yes"/>
      <point x="838.0" y="770.0" type="line"/>
      <point x="838.0" y="860.0"/>
      <point x="723.0" y="937.0"/>
      <point x="638.0" y="937.0" type="qcurve" smooth="yes"/>
      <point x="498.0" y="937.0"/>
      <point x="252.0" y="578.0"/>
    </contour>
  </outline>
</glyph>
<glyph name="eng" format="2">
  <advance width="1128"/>
  <unicode hex="014B"/>
  <outline>
    <contour>
      <point x="67.0" y="0.0" type="line" smooth="yes"/>
      <point x="22.0" y="0.0"/>
      <point x="32.0" y="45.0" type="qcurve" smooth="yes"/>
      <point x="254.0" y="1005.0" type="line" smooth="yes"/>
      <point x="264.0" y="1050.0"/>
      <point x="309.0" y="1050.0" type="qcurve" smooth="yes"/>
      <point x="393.0" y="1050.0" type="line" smooth="yes"/>
      <point x="438.0" y="1050.0"/>
      <point x="428.0" y="1005.0" type="qcurve" smooth="yes"/>
      <point x="401.0" y="885.0" type="line"/>
      <point x="405.0" y="885.0" type="line"/>
      <point x="464.0" y="958.0"/>
      <point x="653.0" y="1067.0"/>
      <point x="773.0" y="1067.0" type="qcurve" smooth="yes"/>
      <point x="943.0" y="1067.0"/>
      <point x="1067.0" y="862.0"/>
      <point x="1026.0" y="684.0" type="qcurve" smooth="yes"/>
      <point x="846.0" y="-93.0" type="line" smooth="yes"/>
      <point x="801.0" y="-287.0"/>
      <point x="619.0" y="-417.0"/>
      <point x="510.0" y="-417.0" type="qcurve" smooth="yes"/>
      <point x="411.0" y="-417.0"/>
      <point x="373.0" y="-397.0" type="qcurve" smooth="yes"/>
      <point x="356.0" y="-388.0"/>
      <point x="363.0" y="-365.0" type="qcurve" smooth="yes"/>
      <point x="388.0" y="-284.0" type="line" smooth="yes"/>
      <point x="396.0" y="-258.0"/>
      <point x="417.0" y="-269.0" type="qcurve" smooth="yes"/>
      <point x="452.0" y="-287.0"/>
      <point x="508.0" y="-287.0" type="qcurve" smooth="yes"/>
      <point x="567.0" y="-287.0"/>
      <point x="651.0" y="-173.0"/>
      <point x="692.0" y="6.0" type="qcurve" smooth="yes"/>
      <point x="839.0" y="636.0" type="line" smooth="yes"/>
      <point x="884.0" y="832.0"/>
      <point x="788.0" y="937.0"/>
      <point x="678.0" y="937.0" type="qcurve" smooth="yes"/>
      <point x="558.0" y="937.0"/>
      <point x="361.0" y="704.0"/>
      <point x="326.0" y="554.0" type="qcurve" smooth="yes"/>
      <point x="208.0" y="45.0" type="line" smooth="yes"/>
      <point x="198.0" y="0.0"/>
      <point x="153.0" y="0.0" type="qcurve" smooth="yes"/>
    </contour>
  </outline>
</glyph>
<glyph name="longs" format="2">
  <advance width="580"/>
  <unicode hex="017F"/>
  <outline>
    <contour>
      <point x="-25.0" y="-400.0" type="line" smooth="yes"/>
      <point x="-70.0" y="-400.0"/>
      <point x="-60.0" y="-355.0" type="qcurve" smooth="yes"/>
      <point x="299.0" y="1199.0" type="line" smooth="yes"/>
      <point x="338.0" y="1366.0"/>
      <point x="548.0" y="1493.0"/>
      <point x="653.0" y="1493.0" type="qcurve" smooth="yes"/>
      <point x="720.0" y="1493.0"/>
      <point x="796.0" y="1479.0"/>
      <point x="849.0" y="1455.0" type="qcurve" smooth="yes"/>
      <point x="869.0" y="1446.0"/>
      <point x="855.0" y="1423.0" type="qcurve" smooth="yes"/>
      <point x="805.0" y="1344.0" type="line" smooth="yes"/>
      <point x="792.0" y="1324.0"/>
      <point x="768.0" y="1336.0" type="qcurve" smooth="yes"/>
      <point x="749.0" y="1346.0"/>
      <point x="694.0" y="1363.0"/>
      <point x="659.0" y="1363.0" type="qcurve" smooth="yes"/>
      <point x="580.0" y="1363.0"/>
      <point x="492.0" y="1274.0"/>
      <point x="468.0" y="1170.0" type="qcurve" smooth="yes"/>
      <point x="116.0" y="-355.0" type="line" smooth="yes"/>
      <point x="106.0" y="-400.0"/>
      <point x="61.0" y="-400.0" type="qcurve" smooth="yes"/>
    </contour>
  </outline>
</glyph>
<glyph name="uni025B" format="2">
  <advance width="918"/>
  <unicode hex="025B"/>
  <outline>
    <contour>
      <point x="46.0" y="246.0" type="qcurve" smooth="yes"/>
      <point x="46.0" y="342.0"/>
      <point x="178.0" y="522.0"/>
      <point x="318.0" y="553.0" type="qcurve"/>
      <point x="318.0" y="556.0" type="line"/>
      <point x="270.0" y="574.0"/>
      <point x="202.0" y="660.0"/>
      <point x="202.0" y="711.0" type="qcurve" smooth="yes"/>
      <point x="202.0" y="866.0"/>
      <point x="430.0" y="1067.0"/>
      <point x="582.0" y="1067.0" type="qcurve" smooth="yes"/>
      <point x="686.0" y="1067.0"/>
      <point x="820.0" y="1016.0"/>
      <point x="876.0" y="965.0" type="qcurve" smooth="yes"/>
      <point x="915.0" y="929.0"/>
      <point x="883.0" y="903.0" type="qcurve" smooth="yes"/>
      <point x="825.0" y="856.0" type="line" smooth="yes"/>
      <point x="805.0" y="840.0"/>
      <point x="766.0" y="874.0" type="qcurve" smooth="yes"/>
      <point x="722.0" y="912.0"/>
      <point x="626.0" y="937.0"/>
      <point x="574.0" y="937.0" type="qcurve" smooth="yes"/>
      <point x="494.0" y="937.0"/>
      <point x="378.0" y="808.0"/>
      <point x="378.0" y="718.0" type="qcurve" smooth="yes"/>
      <point x="378.0" y="680.0"/>
      <point x="440.0" y="613.0"/>
      <point x="521.0" y="613.0" type="qcurve" smooth="yes"/>
      <point x="604.0" y="613.0" type="line" smooth="yes"/>
      <point x="643.0" y="613.0"/>
      <point x="635.0" y="578.0" type="qcurve" smooth="yes"/>
      <point x="622.0" y="518.0" type="line" smooth="yes"/>
      <point x="614.0" y="483.0"/>
      <point x="574.0" y="483.0" type="qcurve" smooth="yes"/>
      <point x="492.0" y="483.0" type="line" smooth="yes"/>
      <point x="392.0" y="483.0"/>
      <point x="232.0" y="356.0"/>
      <point x="232.0" y="268.0" type="qcurve" smooth="yes"/>
      <point x="232.0" y="180.0"/>
      <point x="334.0" y="113.0"/>
      <point x="426.0" y="113.0" type="qcurve" smooth="yes"/>
      <point x="492.0" y="113.0"/>
      <point x="626.0" y="188.0"/>
      <point x="656.0" y="212.0" type="qcurve" smooth="yes"/>
      <point x="698.0" y="246.0"/>
      <point x="721.0" y="219.0" type="qcurve" smooth="yes"/>
      <point x="769.0" y="162.0" type="line" smooth="yes"/>
      <point x="792.0" y="134.0"/>
      <point x="760.0" y="107.0" type="qcurve" smooth="yes"/>
      <point x="718.0" y="73.0"/>
      <point x="524.0" y="-17.0"/>
      <point x="405.0" y="-17.0" type="qcurve" smooth="yes"/>
      <point x="242.0" y="-17.0"/>
      <point x="46.0" y="106.0"/>
    </contour>
  </outline>
</glyph>
<glyph name="uni0269" format="2">
  <advance width="660"/>
  <unicode hex="0269"/>
  <outline>
    <contour>
      <point x="87.0" y="283.0" type="qcurve" smooth="yes"/>
      <point x="254.0" y="1005.0" type="line" smooth="yes"/>
      <point x="264.0" y="1050.0"/>
      <point x="309.0" y="1050.0" type="qcurve" smooth="yes"/>
      <point x="395.0" y="1050.0" type="line" smooth="yes"/>
      <point x="440.0" y="1050.0"/>
      <point x="430.0" y="1005.0" type="qcurve" smooth="yes"/>
      <point x="257.0" y="254.0" type="line" smooth="yes"/>
      <point x="237.0" y="167.0"/>
      <point x="274.0" y="113.0"/>
      <point x="322.0" y="113.0" type="qcurve" smooth="yes"/>
      <point x="350.0" y="113.0"/>
      <point x="433.0" y="146.0"/>
      <point x="455.0" y="160.0" type="qcurve" smooth="yes"/>
      <point x="477.0" y="174.0"/>
      <point x="488.0" y="148.0" type="qcurve" smooth="yes"/>
      <point x="513.0" y="87.0" type="line" smooth="yes"/>
      <point x="521.0" y="67.0"/>
      <point x="492.0" y="50.0" type="qcurve" smooth="yes"/>
      <point x="441.0" y="20.0"/>
      <point x="310.0" y="-17.0"/>
      <point x="242.0" y="-17.0" type="qcurve" smooth="yes"/>
      <point x="134.0" y="-17.0"/>
      <point x="56.0" y="149.0"/>
    </contour>
  </outline>
</glyph>
<glyph name="uni028C" format="2">
  <advance width="986"/>
  <unicode hex="028C"/>
  <outline>
    <contour>
      <point x="-48.0" y="0.0" type="line" smooth="yes"/>
      <point x="-92.0" y="0.0"/>
      <point x="-64.0" y="49.0" type="qcurve" smooth="yes"/>
      <point x="481.0" y="989.0" type="line" smooth="yes"/>
      <point x="516.0" y="1050.0"/>
      <point x="549.0" y="1050.0" type="qcurve" smooth="yes"/>
      <point x="681.0" y="1050.0" type="line" smooth="yes"/>
      <point x="714.0" y="1050.0"/>
      <point x="721.0" y="989.0" type="qcurve" smooth="yes"/>
      <point x="832.0" y="49.0" type="line" smooth="yes"/>
      <point x="838.0" y="0.0"/>
      <point x="794.0" y="0.0" type="qcurve" smooth="yes"/>
      <point x="695.0" y="0.0" type="line" smooth="yes"/>
      <point x="663.0" y="0.0"/>
      <point x="659.0" y="39.0" type="qcurve" smooth="yes"/>
      <point x="599.0" y="699.0" type="line" smooth="yes"/>
      <point x="595.0" y="739.0"/>
      <point x="589.0" y="841.0"/>
      <point x="589.0" y="886.0" type="qcurve"/>
      <point x="585.0" y="886.0" type="line"/>
      <point x="567.0" y="841.0"/>
      <point x="534.0" y="780.0"/>
      <point x="489.0" y="699.0" type="qcurve" smooth="yes"/>
      <point x="125.0" y="39.0" type="line" smooth="yes"/>
      <point x="103.0" y="0.0"/>
      <point x="71.0" y="0.0" type="qcurve" smooth="yes"/>
    </contour>
  </outline>
</glyph>
<glyph name="ring" format="2">
  <advance width="614"/>
  <unicode hex="02DA"/>
  <outline>
    <contour>
      <point x="310.0" y="1313.0" type="qcurve" smooth="yes"/>
      <point x="310.0" y="1388.0"/>
      <point x="415.0" y="1493.0"/>
      <point x="490.0" y="1493.0" type="qcurve" smooth="yes"/>
      <point x="565.0" y="1493.0"/>
      <point x="670.0" y="1388.0"/>
      <point x="670.0" y="1313.0" type="qcurve" smooth="yes"/>
      <point x="670.0" y="1238.0"/>
      <point x="565.0" y="1133.0"/>
      <point x="490.0" y="1133.0" type="qcurve" smooth="yes"/>
      <point x="415.0" y="1133.0"/>
      <point x="310.0" y="1238.0"/>
    </contour>
    <contour>
      <point x="386.0" y="1313.0" type="qcurve" smooth="yes"/>
      <point x="386.0" y="1269.0"/>
      <point x="446.0" y="1209.0"/>
      <point x="490.0" y="1209.0" type="qcurve" smooth="yes"/>
      <point x="534.0" y="1209.0"/>
      <point x="594.0" y="1269.0"/>
      <point x="594.0" y="1313.0" type="qcurve" smooth="yes"/>
      <point x="594.0" y="1357.0"/>
      <point x="534.0" y="1417.0"/>
      <point x="490.0" y="1417.0" type="qcurve" smooth="yes"/>
      <point x="446.0" y="1417.0"/>
      <point x="386.0" y="1357.0"/>
    </contour>
  </outline>
</glyph>
<glyph name="ogonek" format="2">
  <advance width="614"/>
  <unicode hex="02DB"/>
  <outline>
    <contour>
      <point x="-64.0" y="-284.0" type="qcurve" smooth="yes"/>
      <point x="-64.0" y="-232.0"/>
      <point x="-29.0" y="-149.0"/>
      <point x="63.0" y="-72.0"/>
      <point x="164.0" y="-6.0" type="qcurve" smooth="yes"/>
      <point x="183.0" y="7.0"/>
      <point x="191.0" y="45.0" type="qcurve"/>
      <point x="362.0" y="45.0" type="line"/>
      <point x="355.0" y="15.0"/>
      <point x="335.0" y="0.0" type="qcurve" smooth="yes"/>
      <point x="241.0" y="-70.0"/>
      <point x="96.0" y="-186.0"/>
      <point x="96.0" y="-233.0" type="qcurve" smooth="yes"/>
      <point x="96.0" y="-260.0"/>
      <point x="126.0" y="-287.0"/>
      <point x="162.0" y="-287.0" type="qcurve" smooth="yes"/>
      <point x="205.0" y="-287.0"/>
      <point x="235.0" y="-281.0" type="qcurve" smooth="yes"/>
      <point x="259.89801025390625" y="-276.02099609375"/>
      <point x="262.0" y="-303.0" type="qcurve" smooth="yes"/>
      <point x="268.0" y="-380.0" type="line" smooth="yes"/>
      <point x="269.87200927734375" y="-404.0260009765625"/>
      <point x="250.0" y="-408.0" type="qcurve" smooth="yes"/>
      <point x="192.0" y="-417.0"/>
      <point x="132.0" y="-417.0" type="qcurve" smooth="yes"/>
      <point x="32.0" y="-417.0"/>
      <point x="-64.0" y="-342.0"/>
    </contour>
  </outline>
</glyph>
<glyph name="hungarumlaut" format="2">
  <advance width="614"/>
  <unicode hex="02DD"/>
  <outline>
    <contour>
      <point x="488.0" y="1150.0" type="line" smooth="yes"/>
      <point x="449.0" y="1150.0"/>
      <point x="483.0" y="1203.0" type="qcurve" smooth="yes"/>
      <point x="609.0" y="1398.0" type="line" smooth="yes"/>
      <point x="633.0" y="1435.0"/>
      <point x="696.0" y="1435.0" type="qcurve" smooth="yes"/>
      <point x="803.0" y="1435.0" type="line" smooth="yes"/>
      <point x="857.0" y="1435.0"/>
      <point x="809.0" y="1383.0" type="qcurve" smooth="yes"/>
      <point x="621.0" y="1179.0" type="line" smooth="yes"/>
      <point x="594.0" y="1150.0"/>
      <point x="540.0" y="1150.0" type="qcurve" smooth="yes"/>
    </contour>
    <contour>
      <point x="188.0" y="1150.0" type="line" smooth="yes"/>
      <point x="149.0" y="1150.0"/>
      <point x="183.0" y="1203.0" type="qcurve" smooth="yes"/>
      <point x="309.0" y="1398.0" type="line" smooth="yes"/>
      <point x="333.0" y="1435.0"/>
      <point x="396.0" y="1435.0" type="qcurve" smooth="yes"/>
      <point x="503.0" y="1435.0" type="line" smooth="yes"/>
      <point x="557.0" y="1435.0"/>
      <point x="509.0" y="1383.0" type="qcurve" smooth="yes"/>
      <point x="321.0" y="1179.0" type="line" smooth="yes"/>
      <point x="294.0" y="1150.0"/>
      <point x="240.0" y="1150.0" type="qcurve" smooth="yes"/>
    </contour>
  </outline>
</glyph>
<glyph name="afii10145" format="2">
  <advance width="1410"/>
  <unicode hex="040F"/>
  <outline>
    <contour>
      <point x="100.0" y="0.0" type="line" smooth="yes"/>
      <point x="50.0" y="0.0"/>
      <point x="63.0" y="55.0" type="qcurve" smooth="yes"/>
      <point x="368.0" y="1379.0" type="line" smooth="yes"/>
      <point x="381.0" y="1434.0"/>
      <point x="431.0" y="1434.0" type="qcurve" smooth="yes"/>
      <point x="523.0" y="1434.0" type="line" smooth="yes"/>
      <point x="573.0" y="1434.0"/>
      <point x="560.0" y="1379.0" type="qcurve" smooth="yes"/>
      <point x="280.0" y="164.0" type="line"/>
      <point x="966.0" y="164.0" type="line"/>
      <point x="1246.0" y="1379.0" type="line" smooth="yes"/>
      <point x="1259.0" y="1434.0"/>
      <point x="1309.0" y="1434.0" type="qcurve" smooth="yes"/>
      <point x="1401.0" y="1434.0" type="line" smooth="yes"/>
      <point x="1451.0" y="1434.0"/>
      <point x="1438.0" y="1379.0" type="qcurve" smooth="yes"/>
      <point x="1133.0" y="55.0" type="line" smooth="yes"/>
      <point x="1120.0" y="0.0"/>
      <point x="1070.0" y="0.0" type="qcurve" smooth="yes"/>
      <point x="668.0" y="0.0" type="line"/>
      <point x="594.0" y="-320.0" type="line" smooth="yes"/>
      <point x="583.0" y="-370.0"/>
      <point x="543.0" y="-370.0" type="qcurve" smooth="yes"/>
      <point x="457.0" y="-370.0" type="line" smooth="yes"/>
      <point x="417.0" y="-370.0"/>
      <point x="428.0" y="-320.0" type="qcurve" smooth="yes"/>
      <point x="502.0" y="0.0" type="line"/>
    </contour>
  </outline>
</glyph>
<glyph name="afii10029" format="2">
  <advance width="1474"/>
  <unicode hex="041B"/>
  <outline>
    <contour>
      <point x="-46.0" y="-17.0" type="qcurve" smooth="yes"/>
      <point x="-77.0" y="-6.0"/>
      <point x="-67.0" y="29.0" type="qcurve" smooth="yes"/>
      <point x="-42.0" y="112.0" type="line" smooth="yes"/>
      <point x="-31.0" y="149.0"/>
      <point x="15.0" y="135.0" type="qcurve" smooth="yes"/>
      <point x="41.0" y="127.0"/>
      <point x="92.0" y="127.0" type="qcurve" smooth="yes"/>
      <point x="261.0" y="127.0"/>
      <point x="466.0" y="654.0"/>
      <point x="563.0" y="1077.0" type="qcurve" smooth="yes"/>
      <point x="632.0" y="1379.0" type="line" smooth="yes"/>
      <point x="645.0" y="1434.0"/>
      <point x="695.0" y="1434.0" type="qcurve" smooth="yes"/>
      <point x="1465.0" y="1434.0" type="line" smooth="yes"/>
      <point x="1515.0" y="1434.0"/>
      <point x="1502.0" y="1379.0" type="qcurve" smooth="yes"/>
      <point x="1197.0" y="55.0" type="line" smooth="yes"/>
      <point x="1184.0" y="0.0"/>
      <point x="1134.0" y="0.0" type="qcurve" smooth="yes"/>
      <point x="1042.0" y="0.0" type="line" smooth="yes"/>
      <point x="992.0" y="-0.0"/>
      <point x="1005.0" y="55.0" type="qcurve" smooth="yes"/>
      <point x="1285.0" y="1270.0" type="line"/>
      <point x="773.0" y="1270.0" type="line"/>
      <point x="716.0" y="1021.0" type="line" smooth="yes"/>
      <point x="572.0" y="393.0"/>
      <point x="315.0" y="-30.0"/>
      <point x="79.0" y="-30.0" type="qcurve" smooth="yes"/>
      <point x="-9.0" y="-30.0"/>
    </contour>
  </outline>
</glyph>
<glyph name="afii10033" format="2">
  <advance width="1416"/>
  <unicode hex="041F"/>
  <outline>
    <contour>
      <point x="100.0" y="0.0" type="line" smooth="yes"/>
      <point x="50.0" y="0.0"/>
      <point x="63.0" y="55.0" type="qcurve" smooth="yes"/>
      <point x="368.0" y="1379.0" type="line" smooth="yes"/>
      <point x="381.0" y="1434.0"/>
      <point x="431.0" y="1434.0" type="qcurve" smooth="yes"/>
      <point x="1407.0" y="1434.0" type="line" smooth="yes"/>
      <point x="1457.0" y="1434.0"/>
      <point x="1444.0" y="1379.0" type="qcurve" smooth="yes"/>
      <point x="1139.0" y="55.0" type="line" smooth="yes"/>
      <point x="1126.0" y="0.0"/>
      <point x="1076.0" y="0.0" type="qcurve" smooth="yes"/>
      <point x="984.0" y="0.0" type="line" smooth="yes"/>
      <point x="934.0" y="0.0"/>
      <point x="947.0" y="55.0" type="qcurve" smooth="yes"/>
      <point x="1227.0" y="1270.0" type="line"/>
      <point x="535.0" y="1270.0" type="line"/>
      <point x="255.0" y="55.0" type="line" smooth="yes"/>
      <point x="242.0" y="0.0"/>
      <point x="192.0" y="0.0" type="qcurve" smooth="yes"/>
    </contour>
  </outline>
</glyph>
<glyph name="afii10038" format="2">
  <advance width="1728"/>
  <unicode hex="0424"/>
  <outline>
    <contour>
      <point x="122.0" y="650.0" type="qcurve" smooth="yes"/>
      <point x="122.0" y="917.0"/>
      <point x="514.0" y="1260.0"/>
      <point x="836.0" y="1260.0" type="qcurve" smooth="yes"/>
      <point x="939.0" y="1260.0" type="line"/>
      <point x="968.0" y="1384.0" type="line" smooth="yes"/>
      <point x="981.0" y="1439.0"/>
      <point x="1030.0" y="1439.0" type="qcurve" smooth="yes"/>
      <point x="1122.0" y="1439.0" type="line" smooth="yes"/>
      <point x="1172.0" y="1439.0"/>
      <point x="1160.0" y="1384.0" type="qcurve" smooth="yes"/>
      <point x="1131.0" y="1260.0" type="line"/>
      <point x="1174.0" y="1260.0" type="line" smooth="yes"/>
      <point x="1437.0" y="1260.0"/>
      <point x="1703.0" y="1017.0"/>
      <point x="1703.0" y="810.0" type="qcurve" smooth="yes"/>
      <point x="1703.0" y="543.0"/>
      <point x="1311.0" y="200.0"/>
      <point x="989.0" y="200.0" type="qcurve" smooth="yes"/>
      <point x="886.0" y="200.0" type="line"/>
      <point x="850.0" y="43.0" type="line" smooth="yes"/>
      <point x="837.0" y="-12.0"/>
      <point x="787.0" y="-12.0" type="qcurve" smooth="yes"/>
      <point x="695.0" y="-12.0" type="line" smooth="yes"/>
      <point x="645.0" y="-12.0"/>
      <point x="658.0" y="43.0" type="qcurve" smooth="yes"/>
      <point x="694.0" y="200.0" type="line"/>
      <point x="651.0" y="200.0" type="line" smooth="yes"/>
      <point x="388.0" y="200.0"/>
      <point x="122.0" y="443.0"/>
    </contour>
    <contour>
      <point x="327.0" y="630.0" type="qcurve" smooth="yes"/>
      <point x="327.0" y="491.0"/>
      <point x="511.0" y="350.0"/>
      <point x="709.0" y="350.0" type="qcurve" smooth="yes"/>
      <point x="729.0" y="350.0" type="line"/>
      <point x="904.0" y="1110.0" type="line"/>
      <point x="824.0" y="1110.0" type="line" smooth="yes"/>
      <point x="619.0" y="1110.0"/>
      <point x="327.0" y="866.0"/>
    </contour>
    <contour>
      <point x="921.0" y="350.0" type="line"/>
      <point x="1001.0" y="350.0" type="line" smooth="yes"/>
      <point x="1206.0" y="350.0"/>
      <point x="1498.0" y="594.0"/>
      <point x="1498.0" y="830.0" type="qcurve" smooth="yes"/>
      <point x="1498.0" y="969.0"/>
      <point x="1314.0" y="1110.0"/>
      <point x="1116.0" y="1110.0" type="qcurve" smooth="yes"/>
      <point x="1096.0" y="1110.0" type="line"/>
    </contour>
  </outline>
</glyph>
<glyph name="afii10040" format="2">
  <advance width="1486"/>
  <unicode hex="0426"/>
  <outline>
    <contour>
      <point x="100.0" y="0.0" type="line" smooth="yes"/>
      <point x="50.0" y="0.0"/>
      <point x="63.0" y="55.0" type="qcurve" smooth="yes"/>
      <point x="368.0" y="1379.0" type="line" smooth="yes"/>
      <point x="381.0" y="1434.0"/>
      <point x="431.0" y="1434.0" type="qcurve" smooth="yes"/>
      <point x="523.0" y="1434.0" type="line" smooth="yes"/>
      <point x="573.0" y="1434.0"/>
      <point x="560.0" y="1379.0" type="qcurve" smooth="yes"/>
      <point x="280.0" y="164.0" type="line"/>
      <point x="966.0" y="164.0" type="line"/>
      <point x="1246.0" y="1379.0" type="line" smooth="yes"/>
      <point x="1259.0" y="1434.0"/>
      <point x="1309.0" y="1434.0" type="qcurve" smooth="yes"/>
      <point x="1401.0" y="1434.0" type="line" smooth="yes"/>
      <point x="1451.0" y="1434.0"/>
      <point x="1438.0" y="1379.0" type="qcurve" smooth="yes"/>
      <point x="1158.0" y="164.0" type="line"/>
      <point x="1290.0" y="164.0" type="line" smooth="yes"/>
      <point x="1340.0" y="164.0"/>
      <point x="1327.0" y="109.0" type="qcurve" smooth="yes"/>
      <point x="1228.0" y="-320.0" type="line" smooth="yes"/>
      <point x="1217.0" y="-370.0"/>
      <point x="1177.0" y="-370.0" type="qcurve" smooth="yes"/>
      <point x="1091.0" y="-370.0" type="line" smooth="yes"/>
      <point x="1051.0" y="-370.0"/>
      <point x="1062.0" y="-320.0" type="qcurve" smooth="yes"/>
      <point x="1136.0" y="0.0" type="line"/>
    </contour>
  </outline>
</glyph>
<glyph name="afii10047" format="2">
  <advance width="1352"/>
  <unicode hex="042D"/>
  <outline>
    <contour>
      <point x="55.0" y="191.0" type="qcurve" smooth="yes"/>
      <point x="20.0" y="247.0"/>
      <point x="63.0" y="276.0" type="qcurve" smooth="yes"/>
      <point x="138.0" y="327.0" type="line" smooth="yes"/>
      <point x="181.0" y="356.0"/>
      <point x="210.0" y="309.0" type="qcurve" smooth="yes"/>
      <point x="243.0" y="255.0"/>
      <point x="408.0" y="126.0"/>
      <point x="570.0" y="126.0" type="qcurve" smooth="yes"/>
      <point x="752.0" y="126.0"/>
      <point x="1064.0" y="378.0"/>
      <point x="1115.0" y="668.0" type="qcurve"/>
      <point x="422.0" y="668.0" type="line" smooth="yes"/>
      <point x="366.0" y="668.0"/>
      <point x="377.0" y="713.0" type="qcurve" smooth="yes"/>
      <point x="395.0" y="787.0" type="line" smooth="yes"/>
      <point x="406.0" y="832.0"/>
      <point x="460.0" y="832.0" type="qcurve" smooth="yes"/>
      <point x="1130.0" y="832.0" type="line"/>
      <point x="1156.0" y="1038.0"/>
      <point x="948.0" y="1308.0"/>
      <point x="738.0" y="1308.0" type="qcurve" smooth="yes"/>
      <point x="606.0" y="1308.0"/>
      <point x="420.0" y="1218.0"/>
      <point x="375.0" y="1173.0" type="qcurve" smooth="yes"/>
      <point x="332.0" y="1130.0"/>
      <point x="304.0" y="1156.0" type="qcurve" smooth="yes"/>
      <point x="243.0" y="1211.0" type="line" smooth="yes"/>
      <point x="206.0" y="1245.0"/>
      <point x="255.0" y="1296.0" type="qcurve" smooth="yes"/>
      <point x="318.0" y="1362.0"/>
      <point x="558.0" y="1464.0"/>
      <point x="745.0" y="1464.0" type="qcurve" smooth="yes"/>
      <point x="1008.0" y="1464.0"/>
      <point x="1333.0" y="1174.0"/>
      <point x="1333.0" y="828.0" type="qcurve" smooth="yes"/>
      <point x="1333.0" y="482.0"/>
      <point x="930.0" y="-30.0"/>
      <point x="570.0" y="-30.0" type="qcurve" smooth="yes"/>
      <point x="351.0" y="-30.0"/>
      <point x="114.0" y="96.0"/>
    </contour>
  </outline>
</glyph>
<glyph name="afii10067" format="2">
  <advance width="1060"/>
  <unicode hex="0432"/>
  <outline>
    <contour>
      <point x="72.0" y="404.0" type="qcurve" smooth="yes"/>
      <point x="72.0" y="616.0"/>
      <point x="332.0" y="1067.0"/>
      <point x="656.0" y="1067.0" type="qcurve" smooth="yes"/>
      <point x="769.0" y="1067.0"/>
      <point x="945.0" y="960.0"/>
      <point x="945.0" y="848.0" type="qcurve" smooth="yes"/>
      <point x="945.0" y="762.0"/>
      <point x="856.0" y="626.0"/>
      <point x="708.0" y="570.0" type="qcurve"/>
      <point x="708.0" y="568.0" type="line"/>
      <point x="812.0" y="555.0"/>
      <point x="920.0" y="410.0"/>
      <point x="920.0" y="305.0" type="qcurve" smooth="yes"/>
      <point x="920.0" y="154.0"/>
      <point x="674.0" y="-17.0"/>
      <point x="446.0" y="-17.0" type="qcurve" smooth="yes"/>
      <point x="284.0" y="-17.0"/>
      <point x="72.0" y="176.0"/>
    </contour>
    <contour>
      <point x="258.0" y="357.0" type="qcurve" smooth="yes"/>
      <point x="258.0" y="248.0"/>
      <point x="342.0" y="113.0"/>
      <point x="472.0" y="113.0" type="qcurve" smooth="yes"/>
      <point x="578.0" y="113.0"/>
      <point x="734.0" y="200.0"/>
      <point x="734.0" y="322.0" type="qcurve" smooth="yes"/>
      <point x="734.0" y="396.0"/>
      <point x="628.0" y="481.0"/>
      <point x="548.0" y="481.0" type="qcurve" smooth="yes"/>
      <point x="486.0" y="481.0"/>
      <point x="330.0" y="444.0"/>
      <point x="264.0" y="430.0" type="qcurve"/>
      <point x="258.0" y="392.0"/>
    </contour>
    <contour>
      <point x="276.0" y="569.0" type="qcurve"/>
      <point x="571.0" y="630.0"/>
      <point x="769.0" y="726.0"/>
      <point x="769.0" y="836.0" type="qcurve" smooth="yes"/>
      <point x="769.0" y="884.0"/>
      <point x="679.0" y="937.0"/>
      <point x="623.0" y="937.0" type="qcurve" smooth="yes"/>
      <point x="520.0" y="937.0"/>
      <point x="322.0" y="770.0"/>
    </contour>
  </outline>
</glyph>
<glyph name="afii10072" format="2">
  <advance width="1458"/>
  <unicode hex="0436"/>
  <outline>
    <contour>
      <point x="-29.0" y="0.0" type="line" smooth="yes"/>
      <point x="-90.0" y="0.0"/>
      <point x="-41.0" y="59.0" type="qcurve" smooth="yes"/>
      <point x="230.0" y="384.0" type="line" smooth="yes"/>
      <point x="301.0" y="469.0"/>
      <point x="392.0" y="532.0"/>
      <point x="446.0" y="552.0" type="qcurve"/>
      <point x="447.0" y="554.0" type="line"/>
      <point x="406.0" y="566.0"/>
      <point x="349.0" y="650.0"/>
      <point x="324.0" y="706.0" type="qcurve" smooth="yes"/>
      <point x="197.0" y="991.0" type="line" smooth="yes"/>
      <point x="171.0" y="1050.0"/>
      <point x="236.0" y="1050.0" type="qcurve" smooth="yes"/>
      <point x="311.0" y="1050.0" type="line" smooth="yes"/>
      <point x="348.0" y="1050.0"/>
      <point x="358.0" y="1024.0" type="qcurve" smooth="yes"/>
      <point x="462.0" y="760.0" type="line" smooth="yes"/>
      <point x="476.0" y="724.0"/>
      <point x="585.0" y="614.0"/>
      <point x="638.0" y="614.0" type="qcurve" smooth="yes"/>
      <point x="663.0" y="614.0" type="line"/>
      <point x="753.0" y="1005.0" type="line" smooth="yes"/>
      <point x="763.0" y="1050.0"/>
      <point x="808.0" y="1050.0" type="qcurve" smooth="yes"/>
      <point x="894.0" y="1050.0" type="line" smooth="yes"/>
      <point x="939.0" y="1050.0"/>
      <point x="929.0" y="1005.0" type="qcurve" smooth="yes"/>
      <point x="839.0" y="614.0" type="line"/>
      <point x="864.0" y="614.0" type="line" smooth="yes"/>
      <point x="917.0" y="614.0"/>
      <point x="1040.0" y="721.0"/>
      <point x="1074.0" y="760.0" type="qcurve" smooth="yes"/>
      <point x="1300.0" y="1024.0" type="line" smooth="yes"/>
      <point x="1322.0" y="1050.0"/>
      <point x="1359.0" y="1050.0" type="qcurve" smooth="yes"/>
      <point x="1466.0" y="1050.0" type="line" smooth="yes"/>
      <point x="1533.0" y="1050.0"/>
      <point x="1479.0" y="991.0" type="qcurve" smooth="yes"/>
      <point x="1220.0" y="706.0" type="line" smooth="yes"/>
      <point x="1179.0" y="661.0"/>
      <point x="1052.0" y="562.0"/>
      <point x="1027.0" y="554.0" type="qcurve"/>
      <point x="1026.0" y="552.0" type="line"/>
      <point x="1072.0" y="532.0"/>
      <point x="1135.0" y="467.0"/>
      <point x="1166.0" y="384.0" type="qcurve" smooth="yes"/>
      <point x="1287.0" y="59.0" type="line" smooth="yes"/>
      <point x="1309.0" y="0.0"/>
      <point x="1247.0" y="0.0" type="qcurve" smooth="yes"/>
      <point x="1168.0" y="0.0" type="line" smooth="yes"/>
      <point x="1133.0" y="0.0"/>
      <point x="1120.0" y="37.0" type="qcurve" smooth="yes"/>
      <point x="1010.0" y="358.0" type="line" smooth="yes"/>
      <point x="983.0" y="438.0"/>
      <point x="896.0" y="482.0"/>
      <point x="834.0" y="482.0" type="qcurve" smooth="yes"/>
      <point x="808.0" y="482.0" type="line"/>
      <point x="707.0" y="45.0" type="line" smooth="yes"/>
      <point x="697.0" y="0.0"/>
      <point x="652.0" y="0.0" type="qcurve" smooth="yes"/>
      <point x="566.0" y="0.0" type="line" smooth="yes"/>
      <point x="521.0" y="0.0"/>
      <point x="531.0" y="45.0" type="qcurve" smooth="yes"/>
      <point x="632.0" y="482.0" type="line"/>
      <point x="606.0" y="482.0" type="line" smooth="yes"/>
      <point x="544.0" y="482.0"/>
      <point x="474.0" y="438.0"/>
      <point x="410.0" y="358.0" type="qcurve" smooth="yes"/>
      <point x="152.0" y="37.0" type="line" smooth="yes"/>
      <point x="122.0" y="0.0"/>
      <point x="86.0" y="0.0" type="qcurve" smooth="yes"/>
    </contour>
  </outline>
</glyph>
<glyph name="afii10079" format="2">
  <advance width="1120"/>
  <unicode hex="043D"/>
  <outline>
    <contour>
      <point x="67.0" y="0.0" type="line" smooth="yes"/>
      <point x="22.0" y="0.0"/>
      <point x="32.0" y="45.0" type="qcurve" smooth="yes"/>
      <point x="254.0" y="1005.0" type="line" smooth="yes"/>
      <point x="264.0" y="1050.0"/>
      <point x="309.0" y="1050.0" type="qcurve" smooth="yes"/>
      <point x="395.0" y="1050.0" type="line" smooth="yes"/>
      <point x="440.0" y="1050.0"/>
      <point x="430.0" y="1005.0" type="qcurve" smooth="yes"/>
      <point x="340.0" y="614.0" type="line"/>
      <point x="824.0" y="614.0" type="line"/>
      <point x="914.0" y="1005.0" type="line" smooth="yes"/>
      <point x="924.0" y="1050.0"/>
      <point x="969.0" y="1050.0" type="qcurve" smooth="yes"/>
      <point x="1055.0" y="1050.0" type="line" smooth="yes"/>
      <point x="1100.0" y="1050.0"/>
      <point x="1090.0" y="1005.0" type="qcurve" smooth="yes"/>
      <point x="868.0" y="45.0" type="line" smooth="yes"/>
      <point x="858.0" y="0.0"/>
      <point x="813.0" y="0.0" type="qcurve" smooth="yes"/>
      <point x="727.0" y="0.0" type="line" smooth="yes"/>
      <point x="682.0" y="0.0"/>
      <point x="692.0" y="45.0" type="qcurve" smooth="yes"/>
      <point x="793.0" y="482.0" type="line"/>
      <point x="309.0" y="482.0" type="line"/>
      <point x="208.0" y="45.0" type="line" smooth="yes"/>
      <point x="198.0" y="0.0"/>
      <point x="153.0" y="0.0" type="qcurve" smooth="yes"/>
    </contour>
  </outline>
</glyph>
<glyph name="afii10092" format="2">
  <advance width="1285"/>
  <unicode hex="044A"/>
  <outline>
    <contour>
      <point x="187.0" y="920.0" type="line" smooth="yes"/>
      <point x="142.0" y="920.0"/>
      <point x="150.0" y="955.0" type="qcurve" smooth="yes"/>
      <point x="164.0" y="1015.0" type="line" smooth="yes"/>
      <point x="172.0" y="1050.0"/>
      <point x="217.0" y="1050.0" type="qcurve" smooth="yes"/>
      <point x="663.0" y="1050.0" type="line" smooth="yes"/>
      <point x="708.0" y="1050.0"/>
      <point x="698.0" y="1005.0" type="qcurve" smooth="yes"/>
      <point x="616.0" y="649.0" type="line" smooth="yes"/>
      <point x="606.0" y="610.0"/>
      <point x="598.0" y="588.0" type="qcurve"/>
      <point x="600.0" y="588.0" type="line"/>
      <point x="646.0" y="638.0"/>
      <point x="764.0" y="680.0"/>
      <point x="854.0" y="680.0" type="qcurve" smooth="yes"/>
      <point x="1016.0" y="680.0"/>
      <point x="1170.0" y="494.0"/>
      <point x="1170.0" y="354.0" type="qcurve" smooth="yes"/>
      <point x="1170.0" y="208.0"/>
      <point x="940.0" y="-17.0"/>
      <point x="680.0" y="-17.0" type="qcurve" smooth="yes"/>
      <point x="504.0" y="-17.0"/>
      <point x="343.0" y="232.0"/>
      <point x="392.0" y="444.0" type="qcurve" smooth="yes"/>
      <point x="502.0" y="920.0" type="line"/>
    </contour>
    <contour>
      <point x="552.0" y="370.0" type="qcurve" smooth="yes"/>
      <point x="523.0" y="244.0"/>
      <point x="618.0" y="113.0"/>
      <point x="717.0" y="113.0" type="qcurve" smooth="yes"/>
      <point x="842.0" y="113.0"/>
      <point x="984.0" y="244.0"/>
      <point x="984.0" y="366.0" type="qcurve" smooth="yes"/>
      <point x="984.0" y="442.0"/>
      <point x="894.0" y="550.0"/>
      <point x="800.0" y="550.0" type="qcurve" smooth="yes"/>
      <point x="698.0" y="550.0"/>
      <point x="569.0" y="442.0"/>
    </contour>
  </outline>
</glyph>
<glyph name="afii10106" format="2">
  <advance width="1693"/>
  <unicode hex="0459"/>
  <outline>
    <contour>
      <point x="-60.0" y="-8.0" type="qcurve" smooth="yes"/>
      <point x="-78.0" y="0.0"/>
      <point x="-70.0" y="22.0" type="qcurve" smooth="yes"/>
      <point x="-41.0" y="105.0" type="line" smooth="yes"/>
      <point x="-34.0" y="125.0"/>
      <point x="-12.0" y="119.0" type="qcurve" smooth="yes"/>
      <point x="10.0" y="113.0"/>
      <point x="30.0" y="113.0" type="qcurve" smooth="yes"/>
      <point x="138.0" y="113.0"/>
      <point x="300.0" y="420.0"/>
      <point x="354.0" y="660.0" type="qcurve" smooth="yes"/>
      <point x="375.0" y="754.0" type="line" smooth="yes"/>
      <point x="405.0" y="888.0"/>
      <point x="604.0" y="1050.0"/>
      <point x="849.0" y="1050.0" type="qcurve" smooth="yes"/>
      <point x="1071.0" y="1050.0" type="line" smooth="yes"/>
      <point x="1116.0" y="1050.0"/>
      <point x="1106.0" y="1005.0" type="qcurve" smooth="yes"/>
      <point x="1024.0" y="649.0" type="line" smooth="yes"/>
      <point x="1014.0" y="610.0"/>
      <point x="1006.0" y="588.0" type="qcurve"/>
      <point x="1008.0" y="588.0" type="line"/>
      <point x="1054.0" y="638.0"/>
      <point x="1172.0" y="680.0"/>
      <point x="1262.0" y="680.0" type="qcurve" smooth="yes"/>
      <point x="1424.0" y="680.0"/>
      <point x="1578.0" y="494.0"/>
      <point x="1578.0" y="354.0" type="qcurve" smooth="yes"/>
      <point x="1578.0" y="208.0"/>
      <point x="1348.0" y="-17.0"/>
      <point x="1088.0" y="-17.0" type="qcurve" smooth="yes"/>
      <point x="912.0" y="-17.0"/>
      <point x="751.0" y="232.0"/>
      <point x="800.0" y="444.0" type="qcurve" smooth="yes"/>
      <point x="910.0" y="918.0" type="line"/>
      <point x="874.0" y="918.0" type="line" smooth="yes"/>
      <point x="700.0" y="918.0"/>
      <point x="543.0" y="818.0"/>
      <point x="514.0" y="691.0" type="qcurve" smooth="yes"/>
      <point x="495.0" y="607.0" type="line" smooth="yes"/>
      <point x="427.0" y="306.0"/>
      <point x="216.0" y="-17.0"/>
      <point x="22.0" y="-17.0" type="qcurve" smooth="yes"/>
      <point x="-41.0" y="-17.0"/>
    </contour>
    <contour>
      <point x="960.0" y="370.0" type="qcurve" smooth="yes"/>
      <point x="931.0" y="244.0"/>
      <point x="1026.0" y="113.0"/>
      <point x="1125.0" y="113.0" type="qcurve" smooth="yes"/>
      <point x="1250.0" y="113.0"/>
      <point x="1392.0" y="244.0"/>
      <point x="1392.0" y="366.0" type="qcurve" smooth="yes"/>
      <point x="1392.0" y="442.0"/>
      <point x="1302.0" y="550.0"/>
      <point x="1208.0" y="550.0" type="qcurve" smooth="yes"/>
      <point x="1106.0" y="550.0"/>
      <point x="977.0" y="442.0"/>
    </contour>
  </outline>
</glyph>
<glyph name="afii10193" format="2">
  <advance width="1108"/>
  <unicode hex="045F"/>
  <outline>
    <contour>
      <point x="104.0" y="366.0" type="qcurve" smooth="yes"/>
      <point x="252.0" y="1005.0" type="line" smooth="yes"/>
      <point x="262.0" y="1050.0"/>
      <point x="307.0" y="1050.0" type="qcurve" smooth="yes"/>
      <point x="393.0" y="1050.0" type="line" smooth="yes"/>
      <point x="438.0" y="1050.0"/>
      <point x="428.0" y="1005.0" type="qcurve" smooth="yes"/>
      <point x="292.0" y="414.0" type="line" smooth="yes"/>
      <point x="247.0" y="217.0"/>
      <point x="343.0" y="113.0"/>
      <point x="448.0" y="113.0" type="qcurve" smooth="yes"/>
      <point x="595.0" y="113.0"/>
      <point x="761.0" y="346.0"/>
      <point x="796.0" y="496.0" type="qcurve" smooth="yes"/>
      <point x="914.0" y="1005.0" type="line" smooth="yes"/>
      <point x="924.0" y="1050.0"/>
      <point x="969.0" y="1050.0" type="qcurve" smooth="yes"/>
      <point x="1055.0" y="1050.0" type="line" smooth="yes"/>
      <point x="1100.0" y="1050.0"/>
      <point x="1090.0" y="1005.0" type="qcurve" smooth="yes"/>
      <point x="868.0" y="45.0" type="line" smooth="yes"/>
      <point x="858.0" y="0.0"/>
      <point x="813.0" y="0.0" type="qcurve" smooth="yes"/>
      <point x="729.0" y="0.0" type="line" smooth="yes"/>
      <point x="684.0" y="0.0"/>
      <point x="694.0" y="45.0" type="qcurve" smooth="yes"/>
      <point x="722.0" y="165.0" type="line"/>
      <point x="718.0" y="165.0" type="line"/>
      <point x="659.0" y="92.0"/>
      <point x="468.0" y="-17.0"/>
      <point x="353.0" y="-17.0" type="qcurve" smooth="yes"/>
      <point x="193.0" y="-17.0"/>
      <point x="63.0" y="188.0"/>
    </contour>
    <contour>
      <point x="346.0" y="-350.0" type="line" smooth="yes"/>
      <point x="306.0" y="-350.0"/>
      <point x="317.0" y="-305.0" type="qcurve" smooth="yes"/>
      <point x="353.0" y="-148.0" type="line" smooth="yes"/>
      <point x="364.0" y="-103.0"/>
      <point x="404.0" y="-103.0" type="qcurve" smooth="yes"/>
      <point x="478.0" y="-103.0" type="line" smooth="yes"/>
      <point x="518.0" y="-103.0"/>
      <point x="507.0" y="-148.0" type="qcurve" smooth="yes"/>
      <point x="471.0" y="-305.0" type="line" smooth="yes"/>
      <point x="460.0" y="-350.0"/>
      <point x="420.0" y="-350.0" type="qcurve" smooth="yes"/>
    </contour>
  </outline>
</glyph>
<glyph name="afii10147" format="2">
  <advance width="1514"/>
  <unicode hex="0472"/>
  <outline>
    <contour>
      <point x="110.0" y="580.0" type="qcurve" smooth="yes"/>
      <point x="110.0" y="980.0"/>
      <point x="538.0" y="1464.0"/>
      <point x="878.0" y="1464.0" type="qcurve" smooth="yes"/>
      <point x="1183.0" y="1464.0"/>
      <point x="1495.0" y="1139.0"/>
      <point x="1495.0" y="854.0" type="qcurve" smooth="yes"/>
      <point x="1495.0" y="454.0"/>
      <point x="1067.0" y="-30.0"/>
      <point x="727.0" y="-30.0" type="qcurve" smooth="yes"/>
      <point x="422.0" y="-30.0"/>
      <point x="110.0" y="295.0"/>
    </contour>
    <contour>
      <point x="315.0" y="556.0" type="qcurve" smooth="yes"/>
      <point x="315.0" y="351.0"/>
      <point x="528.0" y="126.0"/>
      <point x="738.0" y="126.0" type="qcurve" smooth="yes"/>
      <point x="958.0" y="126.0"/>
      <point x="1240.0" y="438.0"/>
      <point x="1275.0" y="664.0" type="qcurve"/>
      <point x="319.0" y="664.0" type="line"/>
      <point x="315.0" y="612.0"/>
    </contour>
    <contour>
      <point x="341.0" y="828.0" type="qcurve"/>
      <point x="1289.0" y="828.0" type="line"/>
      <point x="1290.0" y="853.0"/>
      <point x="1290.0" y="878.0" type="qcurve" smooth="yes"/>
      <point x="1290.0" y="1083.0"/>
      <point x="1077.0" y="1308.0"/>
      <point x="867.0" y="1308.0" type="qcurve" smooth="yes"/>
      <point x="647.0" y="1308.0"/>
      <point x="380.0" y="1013.0"/>
    </contour>
  </outline>
</glyph>
<glyph name="uni0494" format="2">
  <advance width="1322"/>
  <unicode hex="0494"/>
  <outline>
    <contour>
      <point x="100.0" y="0.0" type="line" smooth="yes"/>
      <point x="50.0" y="0.0"/>
      <point x="63.0" y="55.0" type="qcurve" smooth="yes"/>
      <point x="368.0" y="1379.0" type="line" smooth="yes"/>
      <point x="381.0" y="1434.0"/>
      <point x="431.0" y="1434.0" type="qcurve" smooth="yes"/>
      <point x="1226.0" y="1434.0" type="line" smooth="yes"/>
      <point x="1281.0" y="1434.0"/>
      <point x="1271.0" y="1389.0" type="qcurve" smooth="yes"/>
      <point x="1254.0" y="1315.0" type="line" smooth="yes"/>
      <point x="1244.0" y="1270.0"/>
      <point x="1188.0" y="1270.0" type="qcurve" smooth="yes"/>
      <point x="535.0" y="1270.0" type="line"/>
      <point x="431.0" y="819.0" type="line" smooth="yes"/>
      <point x="421.0" y="774.0"/>
      <point x="411.0" y="739.0" type="qcurve"/>
      <point x="415.0" y="739.0" type="line"/>
      <point x="510.0" y="792.0"/>
      <point x="662.0" y="830.0"/>
      <point x="758.0" y="830.0" type="qcurve" smooth="yes"/>
      <point x="950.0" y="830.0"/>
      <point x="1177.0" y="604.0"/>
      <point x="1177.0" y="379.0" type="qcurve" smooth="yes"/>
      <point x="1177.0" y="80.0"/>
      <point x="795.0" y="-390.0"/>
      <point x="505.0" y="-390.0" type="qcurve" smooth="yes"/>
      <point x="361.0" y="-390.0"/>
      <point x="299.0" y="-362.0" type="qcurve" smooth="yes"/>
      <point x="266.0" y="-347.0"/>
      <point x="278.0" y="-316.0" type="qcurve" smooth="yes"/>
      <point x="311.0" y="-233.0" type="line" smooth="yes"/>
      <point x="328.0" y="-191.0"/>
      <point x="373.0" y="-208.0" type="qcurve" smooth="yes"/>
      <point x="443.0" y="-233.0"/>
      <point x="518.0" y="-233.0" type="qcurve" smooth="yes"/>
      <point x="717.0" y="-233.0"/>
      <point x="972.0" y="164.0"/>
      <point x="972.0" y="394.0" type="qcurve" smooth="yes"/>
      <point x="972.0" y="540.0"/>
      <point x="820.0" y="676.0"/>
      <point x="682.0" y="676.0" type="qcurve" smooth="yes"/>
      <point x="624.0" y="676.0"/>
      <point x="474.0" y="642.0"/>
      <point x="377.0" y="585.0" type="qcurve"/>
      <point x="255.0" y="55.0" type="line" smooth="yes"/>
      <point x="242.0" y="0.0"/>
      <point x="192.0" y="0.0" type="qcurve" smooth="yes"/>
    </contour>
  </outline>
</glyph>
<glyph name="uni0498" format="2">
  <advance width="1272"/>
  <unicode hex="0498"/>
  <outline>
    <contour>
      <point x="49.0" y="165.0" type="qcurve" smooth="yes"/>
      <point x="4.0" y="212.0"/>
      <point x="40.0" y="241.0" type="qcurve" smooth="yes"/>
      <point x="117.0" y="303.0" type="line" smooth="yes"/>
      <point x="154.0" y="332.0"/>
      <point x="196.0" y="278.0" type="qcurve" smooth="yes"/>
      <point x="231.0" y="234.0"/>
      <point x="417.0" y="126.0"/>
      <point x="584.0" y="126.0" type="qcurve" smooth="yes"/>
      <point x="753.0" y="126.0"/>
      <point x="943.0" y="315.0"/>
      <point x="943.0" y="431.0" type="qcurve" smooth="yes"/>
      <point x="943.0" y="546.0"/>
      <point x="786.0" y="675.0"/>
      <point x="671.0" y="675.0" type="qcurve" smooth="yes"/>
      <point x="511.0" y="675.0" type="line" smooth="yes"/>
      <point x="456.0" y="675.0"/>
      <point x="466.0" y="718.0" type="qcurve" smooth="yes"/>
      <point x="482.0" y="788.0" type="line" smooth="yes"/>
      <point x="492.0" y="833.0"/>
      <point x="547.0" y="833.0" type="qcurve" smooth="yes"/>
      <point x="701.0" y="833.0" type="line" smooth="yes"/>
      <point x="863.0" y="833.0"/>
      <point x="1032.0" y="1002.0"/>
      <point x="1032.0" y="1096.0" type="qcurve" smooth="yes"/>
      <point x="1032.0" y="1206.0"/>
      <point x="846.0" y="1308.0"/>
      <point x="734.0" y="1308.0" type="qcurve" smooth="yes"/>
      <point x="633.0" y="1308.0"/>
      <point x="422.0" y="1227.0"/>
      <point x="374.0" y="1183.0" type="qcurve" smooth="yes"/>
      <point x="327.0" y="1140.0"/>
      <point x="301.0" y="1175.0" type="qcurve" smooth="yes"/>
      <point x="243.0" y="1252.0" type="line" smooth="yes"/>
      <point x="214.0" y="1290.0"/>
      <point x="273.0" y="1333.0" type="qcurve" smooth="yes"/>
      <point x="361.0" y="1397.0"/>
      <point x="579.0" y="1464.0"/>
      <point x="739.0" y="1464.0" type="qcurve" smooth="yes"/>
      <point x="981.0" y="1464.0"/>
      <point x="1227.0" y="1254.0"/>
      <point x="1227.0" y="1110.0" type="qcurve" smooth="yes"/>
      <point x="1227.0" y="957.0"/>
      <point x="1032.0" y="780.0"/>
      <point x="903.0" y="754.0" type="qcurve"/>
      <point x="902.0" y="750.0" type="line"/>
      <point x="1005.0" y="729.0"/>
      <point x="1148.0" y="555.0"/>
      <point x="1148.0" y="427.0" type="qcurve" smooth="yes"/>
      <point x="1148.0" y="261.0"/>
      <point x="875.0" y="-19.0"/>
      <point x="619.0" y="-29.0" type="qcurve"/>
      <point x="577.0" y="-80.0"/>
      <point x="524.0" y="-184.0"/>
      <point x="524.0" y="-224.0" type="qcurve" smooth="yes"/>
      <point x="524.0" y="-258.0"/>
      <point x="558.0" y="-287.0"/>
      <point x="595.0" y="-287.0" type="qcurve" smooth="yes"/>
      <point x="624.0" y="-287.0"/>
      <point x="651.0" y="-280.0" type="qcurve" smooth="yes"/>
      <point x="675.0" y="-274.0"/>
      <point x="677.0" y="-301.0" type="qcurve" smooth="yes"/>
      <point x="684.0" y="-378.0" type="line" smooth="yes"/>
      <point x="686.0" y="-402.0"/>
      <point x="664.0" y="-406.0" type="qcurve" smooth="yes"/>
      <point x="610.0" y="-417.0"/>
      <point x="548.0" y="-417.0" type="qcurve" smooth="yes"/>
      <point x="444.0" y="-417.0"/>
      <point x="362.0" y="-328.0"/>
      <point x="362.0" y="-272.0" type="qcurve" smooth="yes"/>
      <point x="362.0" y="-222.0"/>
      <point x="406.0" y="-102.0"/>
      <point x="470.0" y="-25.0" type="qcurve"/>
      <point x="333.0" y="-12.0"/>
      <point x="105.0" y="105.0"/>
    </contour>
  </outline>
</glyph>
<glyph name="uni0499" format="2">
  <advance width="982"/>
  <unicode hex="0499"/>
  <outline>
    <contour>
      <point x="27.0" y="119.0" type="qcurve" smooth="yes"/>
      <point x="1.0" y="152.0"/>
      <point x="29.0" y="174.0" type="qcurve" smooth="yes"/>
      <point x="89.0" y="223.0" type="line" smooth="yes"/>
      <point x="116.0" y="245.0"/>
      <point x="142.0" y="213.0" type="qcurve" smooth="yes"/>
      <point x="157.0" y="195.0"/>
      <point x="286.0" y="113.0"/>
      <point x="386.0" y="113.0" type="qcurve" smooth="yes"/>
      <point x="518.0" y="113.0"/>
      <point x="666.0" y="250.0"/>
      <point x="666.0" y="333.0" type="qcurve" smooth="yes"/>
      <point x="666.0" y="422.0"/>
      <point x="550.0" y="483.0"/>
      <point x="447.0" y="483.0" type="qcurve" smooth="yes"/>
      <point x="333.0" y="483.0" type="line" smooth="yes"/>
      <point x="288.0" y="483.0"/>
      <point x="296.0" y="518.0" type="qcurve" smooth="yes"/>
      <point x="309.0" y="578.0" type="line" smooth="yes"/>
      <point x="317.0" y="613.0"/>
      <point x="363.0" y="613.0" type="qcurve" smooth="yes"/>
      <point x="464.0" y="613.0" type="line" smooth="yes"/>
      <point x="586.0" y="613.0"/>
      <point x="730.0" y="719.0"/>
      <point x="730.0" y="800.0" type="qcurve" smooth="yes"/>
      <point x="730.0" y="863.0"/>
      <point x="616.0" y="937.0"/>
      <point x="508.0" y="937.0" type="qcurve" smooth="yes"/>
      <point x="438.0" y="937.0"/>
      <point x="316.0" y="890.0"/>
      <point x="288.0" y="864.0" type="qcurve" smooth="yes"/>
      <point x="252.0" y="830.0"/>
      <point x="233.0" y="848.0" type="qcurve" smooth="yes"/>
      <point x="183.0" y="896.0" type="line" smooth="yes"/>
      <point x="151.0" y="927.0"/>
      <point x="190.0" y="962.0" type="qcurve" smooth="yes"/>
      <point x="238.0" y="1006.0"/>
      <point x="394.0" y="1067.0"/>
      <point x="544.0" y="1067.0" type="qcurve" smooth="yes"/>
      <point x="740.0" y="1067.0"/>
      <point x="906.0" y="918.0"/>
      <point x="906.0" y="819.0" type="qcurve" smooth="yes"/>
      <point x="906.0" y="696.0"/>
      <point x="741.0" y="564.0"/>
      <point x="688.0" y="551.0" type="qcurve"/>
      <point x="688.0" y="548.0" type="line"/>
      <point x="762.0" y="532.0"/>
      <point x="852.0" y="421.0"/>
      <point x="852.0" y="324.0" type="qcurve" smooth="yes"/>
      <point x="852.0" y="192.0"/>
      <point x="623.0" y="2.0"/>
      <point x="460.0" y="-14.0" type="qcurve"/>
      <point x="409.0" y="-73.0"/>
      <point x="352.0" y="-184.0"/>
      <point x="352.0" y="-224.0" type="qcurve" smooth="yes"/>
      <point x="352.0" y="-258.0"/>
      <point x="386.0" y="-287.0"/>
      <point x="423.0" y="-287.0" type="qcurve" smooth="yes"/>
      <point x="452.0" y="-287.0"/>
      <point x="479.0" y="-280.0" type="qcurve" smooth="yes"/>
      <point x="503.0" y="-274.0"/>
      <point x="505.0" y="-301.0" type="qcurve" smooth="yes"/>
      <point x="512.0" y="-378.0" type="line" smooth="yes"/>
      <point x="514.0" y="-402.0"/>
      <point x="492.0" y="-406.0" type="qcurve" smooth="yes"/>
      <point x="438.0" y="-417.0"/>
      <point x="376.0" y="-417.0" type="qcurve" smooth="yes"/>
      <point x="272.0" y="-417.0"/>
      <point x="190.0" y="-328.0"/>
      <point x="190.0" y="-272.0" type="qcurve" smooth="yes"/>
      <point x="190.0" y="-222.0"/>
      <point x="236.0" y="-98.0"/>
      <point x="308.0" y="-13.0" type="qcurve"/>
      <point x="198.0" y="-5.0"/>
      <point x="45.0" y="96.0"/>
    </contour>
  </outline>
</glyph>
<glyph name="uni04A2" format="2">
  <advance width="1498"/>
  <unicode hex="04A2"/>
  <outline>
    <contour>
      <point x="100.0" y="0.0" type="line" smooth="yes"/>
      <point x="50.0" y="0.0"/>
      <point x="63.0" y="55.0" type="qcurve" smooth="yes"/>
      <point x="368.0" y="1379.0" type="line" smooth="yes"/>
      <point x="381.0" y="1434.0"/>
      <point x="431.0" y="1434.0" type="qcurve" smooth="yes"/>
      <point x="523.0" y="1434.0" type="line" smooth="yes"/>
      <point x="573.0" y="1434.0"/>
      <point x="560.0" y="1379.0" type="qcurve" smooth="yes"/>
      <point x="433.0" y="828.0" type="line"/>
      <point x="1131.0" y="828.0" type="line"/>
      <point x="1258.0" y="1379.0" type="line" smooth="yes"/>
      <point x="1271.0" y="1434.0"/>
      <point x="1321.0" y="1434.0" type="qcurve" smooth="yes"/>
      <point x="1413.0" y="1434.0" type="line" smooth="yes"/>
      <point x="1463.0" y="1434.0"/>
      <point x="1450.0" y="1379.0" type="qcurve" smooth="yes"/>
      <point x="1170.0" y="164.0" type="line"/>
      <point x="1302.0" y="164.0" type="line" smooth="yes"/>
      <point x="1352.0" y="164.0"/>
      <point x="1339.0" y="109.0" type="qcurve" smooth="yes"/>
      <point x="1240.0" y="-320.0" type="line" smooth="yes"/>
      <point x="1228.0" y="-370.0"/>
      <point x="1189.0" y="-370.0" type="qcurve" smooth="yes"/>
      <point x="1103.0" y="-370.0" type="line" smooth="yes"/>
      <point x="1063.0" y="-370.0"/>
      <point x="1074.0" y="-320.0" type="qcurve" smooth="yes"/>
      <point x="1148.0" y="0.0" type="line"/>
      <point x="990.0" y="0.0" type="line" smooth="yes"/>
      <point x="940.0" y="0.0"/>
      <point x="953.0" y="55.0" type="qcurve" smooth="yes"/>
      <point x="1093.0" y="664.0" type="line"/>
      <point x="395.0" y="664.0" type="line"/>
      <point x="255.0" y="55.0" type="line" smooth="yes"/>
      <point x="242.0" y="0.0"/>
      <point x="192.0" y="0.0" type="qcurve" smooth="yes"/>
    </contour>
  </outline>
</glyph>
<glyph name="uni04A4" format="2">
  <advance width="1944"/>
  <unicode hex="04A4"/>
  <outline>
    <contour>
      <point x="100.0" y="0.0" type="line" smooth="yes"/>
      <point x="50.0" y="0.0"/>
      <point x="63.0" y="55.0" type="qcurve" smooth="yes"/>
      <point x="368.0" y="1379.0" type="line" smooth="yes"/>
      <point x="381.0" y="1434.0"/>
      <point x="431.0" y="1434.0" type="qcurve" smooth="yes"/>
      <point x="523.0" y="1434.0" type="line" smooth="yes"/>
      <point x="573.0" y="1434.0"/>
      <point x="560.0" y="1379.0" type="qcurve" smooth="yes"/>
      <point x="433.0" y="828.0" type="line"/>
      <point x="1131.0" y="828.0" type="line"/>
      <point x="1258.0" y="1379.0" type="line" smooth="yes"/>
      <point x="1271.0" y="1434.0"/>
      <point x="1321.0" y="1434.0" type="qcurve" smooth="yes"/>
      <point x="2064.0" y="1434.0" type="line" smooth="yes"/>
      <point x="2119.0" y="1434.0"/>
      <point x="2109.0" y="1389.0" type="qcurve" smooth="yes"/>
      <point x="2092.0" y="1315.0" type="line" smooth="yes"/>
      <point x="2082.0" y="1270.0"/>
      <point x="2026.0" y="1270.0" type="qcurve" smooth="yes"/>
      <point x="1425.0" y="1270.0" type="line"/>
      <point x="1145.0" y="55.0" type="line" smooth="yes"/>
      <point x="1132.0" y="0.0"/>
      <point x="1082.0" y="0.0" type="qcurve" smooth="yes"/>
      <point x="990.0" y="0.0" type="line" smooth="yes"/>
      <point x="940.0" y="0.0"/>
      <point x="953.0" y="55.0" type="qcurve" smooth="yes"/>
      <point x="1093.0" y="664.0" type="line"/>
      <point x="395.0" y="664.0" type="line"/>
      <point x="255.0" y="55.0" type="line" smooth="yes"/>
      <point x="242.0" y="0.0"/>
      <point x="192.0" y="0.0" type="qcurve" smooth="yes"/>
    </contour>
  </outline>
</glyph>
<glyph name="uni04B0" format="2">
  <advance width="1302"/>
  <unicode hex="04B0"/>
  <outline>
    <contour>
      <point x="250.0" y="1368.0" type="line" smooth="yes"/>
      <point x="223.0" y="1434.0"/>
      <point x="292.0" y="1434.0" type="qcurve" smooth="yes"/>
      <point x="385.0" y="1434.0" type="line" smooth="yes"/>
      <point x="429.0" y="1434.0"/>
      <point x="446.0" y="1385.0" type="qcurve" smooth="yes"/>
      <point x="602.0" y="948.0" type="line" smooth="yes"/>
      <point x="616.0" y="908.0"/>
      <point x="663.0" y="769.0"/>
      <point x="677.0" y="709.0" type="qcurve"/>
      <point x="681.0" y="709.0" type="line"/>
      <point x="723.0" y="769.0"/>
      <point x="804.0" y="873.0"/>
      <point x="866.0" y="948.0" type="qcurve" smooth="yes"/>
      <point x="1224.0" y="1385.0" type="line" smooth="yes"/>
      <point x="1264.0" y="1434.0"/>
      <point x="1307.0" y="1434.0" type="qcurve" smooth="yes"/>
      <point x="1432.0" y="1434.0" type="line" smooth="yes"/>
      <point x="1502.0" y="1434.0"/>
      <point x="1444.0" y="1368.0" type="qcurve" smooth="yes"/>
      <point x="793.0" y="624.0" type="line" smooth="yes"/>
      <point x="780.0" y="609.0"/>
      <point x="765.0" y="598.0" type="qcurve"/>
      <point x="1088.0" y="598.0" type="line" smooth="yes"/>
      <point x="1143.0" y="598.0"/>
      <point x="1133.0" y="553.0" type="qcurve" smooth="yes"/>
      <point x="1116.0" y="479.0" type="line" smooth="yes"/>
      <point x="1106.0" y="434.0"/>
      <point x="1050.0" y="434.0" type="qcurve" smooth="yes"/>
      <point x="727.0" y="434.0" type="line"/>
      <point x="640.0" y="55.0" type="line" smooth="yes"/>
      <point x="627.0" y="0.0"/>
      <point x="577.0" y="0.0" type="qcurve" smooth="yes"/>
      <point x="485.0" y="0.0" type="line" smooth="yes"/>
      <point x="435.0" y="0.0"/>
      <point x="448.0" y="55.0" type="qcurve" smooth="yes"/>
      <point x="535.0" y="434.0" type="line"/>
      <point x="212.0" y="434.0" type="line" smooth="yes"/>
      <point x="157.0" y="434.0"/>
      <point x="168.0" y="479.0" type="qcurve" smooth="yes"/>
      <point x="185.0" y="553.0" type="line" smooth="yes"/>
      <point x="195.0" y="598.0"/>
      <point x="250.0" y="598.0" type="qcurve" smooth="yes"/>
      <point x="573.0" y="598.0" type="line"/>
      <point x="564.0" y="609.0"/>
      <point x="557.0" y="624.0" type="qcurve" smooth="yes"/>
    </contour>
  </outline>
</glyph>
<glyph name="uni04B2" format="2">
  <advance width="1393"/>
  <unicode hex="04B2"/>
  <outline>
    <contour>
      <point x="-42.0" y="0.0" type="line" smooth="yes"/>
      <point x="-106.0" y="0.0"/>
      <point x="-45.0" y="66.0" type="qcurve" smooth="yes"/>
      <point x="593.0" y="752.0" type="line"/>
      <point x="294.0" y="1368.0" type="line" smooth="yes"/>
      <point x="262.0" y="1434.0"/>
      <point x="327.0" y="1434.0" type="qcurve" smooth="yes"/>
      <point x="425.0" y="1434.0" type="line" smooth="yes"/>
      <point x="468.0" y="1434.0"/>
      <point x="486.0" y="1395.0" type="qcurve" smooth="yes"/>
      <point x="721.0" y="873.0" type="line"/>
      <point x="1177.0" y="1395.0" type="line" smooth="yes"/>
      <point x="1211.0" y="1434.0"/>
      <point x="1256.0" y="1434.0" type="qcurve" smooth="yes"/>
      <point x="1394.0" y="1434.0" type="line" smooth="yes"/>
      <point x="1458.0" y="1434.0"/>
      <point x="1397.0" y="1368.0" type="qcurve" smooth="yes"/>
      <point x="806.0" y="727.0" type="line"/>
      <point x="1084.0" y="164.0" type="line"/>
      <point x="1232.0" y="164.0" type="line" smooth="yes"/>
      <point x="1282.0" y="164.0"/>
      <point x="1269.0" y="109.0" type="qcurve" smooth="yes"/>
      <point x="1170.0" y="-320.0" type="line" smooth="yes"/>
      <point x="1158.0" y="-370.0"/>
      <point x="1119.0" y="-370.0" type="qcurve" smooth="yes"/>
      <point x="1033.0" y="-370.0" type="line" smooth="yes"/>
      <point x="992.0" y="-370.0"/>
      <point x="1004.0" y="-320.0" type="qcurve" smooth="yes"/>
      <point x="1078.0" y="0.0" type="line"/>
      <point x="994.0" y="0.0" type="line" smooth="yes"/>
      <point x="950.0" y="0.0"/>
      <point x="933.0" y="39.0" type="qcurve" smooth="yes"/>
      <point x="679.0" y="607.0" type="line"/>
      <point x="182.0" y="39.0" type="line" smooth="yes"/>
      <point x="148.0" y="0.0"/>
      <point x="103.0" y="0.0" type="qcurve" smooth="yes"/>
    </contour>
  </outline>
</glyph>
<glyph name="uni04B3" format="2">
  <advance width="1094"/>
  <unicode hex="04B3"/>
  <outline>
    <contour>
      <point x="-44.0" y="0.0" type="line" smooth="yes"/>
      <point x="-109.0" y="0.0"/>
      <point x="-56.0" y="59.0" type="qcurve" smooth="yes"/>
      <point x="396.0" y="565.0" type="line"/>
      <point x="203.0" y="991.0" type="line" smooth="yes"/>
      <point x="176.0" y="1050.0"/>
      <point x="242.0" y="1050.0" type="qcurve" smooth="yes"/>
      <point x="316.0" y="1050.0" type="line" smooth="yes"/>
      <point x="352.0" y="1050.0"/>
      <point x="363.0" y="1024.0" type="qcurve" smooth="yes"/>
      <point x="511.0" y="676.0" type="line"/>
      <point x="798.0" y="1024.0" type="line" smooth="yes"/>
      <point x="819.0" y="1050.0"/>
      <point x="857.0" y="1050.0" type="qcurve" smooth="yes"/>
      <point x="966.0" y="1050.0" type="line" smooth="yes"/>
      <point x="1032.0" y="1050.0"/>
      <point x="979.0" y="991.0" type="qcurve" smooth="yes"/>
      <point x="579.0" y="542.0" type="line"/>
      <point x="767.0" y="132.0" type="line"/>
      <point x="895.0" y="132.0" type="line" smooth="yes"/>
      <point x="940.0" y="132.0"/>
      <point x="930.0" y="87.0" type="qcurve" smooth="yes"/>
      <point x="840.0" y="-305.0" type="line" smooth="yes"/>
      <point x="830.0" y="-350.0"/>
      <point x="789.0" y="-350.0" type="qcurve" smooth="yes"/>
      <point x="715.0" y="-350.0" type="line" smooth="yes"/>
      <point x="676.0" y="-350.0"/>
      <point x="686.0" y="-305.0" type="qcurve" smooth="yes"/>
      <point x="756.0" y="0.0" type="line"/>
      <point x="682.0" y="0.0" type="line" smooth="yes"/>
      <point x="646.0" y="0.0"/>
      <point x="635.0" y="26.0" type="qcurve" smooth="yes"/>
      <point x="465.0" y="431.0" type="line"/>
      <point x="127.0" y="26.0" type="line" smooth="yes"/>
      <point x="105.0" y="0.0"/>
      <point x="68.0" y="0.0" type="qcurve" smooth="yes"/>
    </contour>
  </outline>
</glyph>
<glyph name="uni04C8" format="2">
  <advance width="1120"/>
  <unicode hex="04C8"/>
  <outline>
    <contour>
      <point x="67.0" y="0.0" type="line" smooth="yes"/>
      <point x="22.0" y="0.0"/>
      <point x="32.0" y="45.0" type="qcurve" smooth="yes"/>
      <point x="254.0" y="1005.0" type="line" smooth="yes"/>
      <point x="264.0" y="1050.0"/>
      <point x="309.0" y="1050.0" type="qcurve" smooth="yes"/>
      <point x="395.0" y="1050.0" type="line" smooth="yes"/>
      <point x="440.0" y="1050.0"/>
      <point x="430.0" y="1005.0" type="qcurve" smooth="yes"/>
      <point x="340.0" y="614.0" type="line"/>
      <point x="824.0" y="614.0" type="line"/>
      <point x="914.0" y="1005.0" type="line" smooth="yes"/>
      <point x="924.0" y="1050.0"/>
      <point x="969.0" y="1050.0" type="qcurve" smooth="yes"/>
      <point x="1055.0" y="1050.0" type="line" smooth="yes"/>
      <point x="1100.0" y="1050.0"/>
      <point x="1090.0" y="1005.0" type="qcurve" smooth="yes"/>
      <point x="836.0" y="-93.0" type="line" smooth="yes"/>
      <point x="791.0" y="-287.0"/>
      <point x="609.0" y="-417.0"/>
      <point x="500.0" y="-417.0" type="qcurve" smooth="yes"/>
      <point x="401.0" y="-417.0"/>
      <point x="363.0" y="-397.0" type="qcurve" smooth="yes"/>
      <point x="346.0" y="-388.0"/>
      <point x="353.0" y="-365.0" type="qcurve" smooth="yes"/>
      <point x="378.0" y="-284.0" type="line" smooth="yes"/>
      <point x="386.0" y="-258.0"/>
      <point x="407.0" y="-269.0" type="qcurve" smooth="yes"/>
      <point x="442.0" y="-287.0"/>
      <point x="498.0" y="-287.0" type="qcurve" smooth="yes"/>
      <point x="557.0" y="-287.0"/>
      <point x="641.0" y="-173.0"/>
      <point x="682.0" y="6.0" type="qcurve" smooth="yes"/>
      <point x="793.0" y="482.0" type="line"/>
      <point x="309.0" y="482.0" type="line"/>
      <point x="208.0" y="45.0" type="line" smooth="yes"/>
      <point x="198.0" y="0.0"/>
      <point x="153.0" y="0.0" type="qcurve" smooth="yes"/>
    </contour>
  </outline>
</glyph>
<glyph name="uni0513" format="2">
  <advance width="1136"/>
  <unicode hex="0513"/>
  <outline>
    <contour>
      <point x="-60.0" y="-8.0" type="qcurve" smooth="yes"/>
      <point x="-78.0" y="0.0"/>
      <point x="-70.0" y="22.0" type="qcurve" smooth="yes"/>
      <point x="-41.0" y="105.0" type="line" smooth="yes"/>
      <point x="-34.0" y="125.0"/>
      <point x="-12.0" y="119.0" type="qcurve" smooth="yes"/>
      <point x="10.0" y="113.0"/>
      <point x="30.0" y="113.0" type="qcurve" smooth="yes"/>
      <point x="138.0" y="113.0"/>
      <point x="300.0" y="420.0"/>
      <point x="354.0" y="660.0" type="qcurve" smooth="yes"/>
      <point x="375.0" y="754.0" type="line" smooth="yes"/>
      <point x="405.0" y="888.0"/>
      <point x="604.0" y="1050.0"/>
      <point x="849.0" y="1050.0" type="qcurve" smooth="yes"/>
      <point x="1071.0" y="1050.0" type="line" smooth="yes"/>
      <point x="1116.0" y="1050.0"/>
      <point x="1106.0" y="1005.0" type="qcurve" smooth="yes"/>
      <point x="853.0" y="-93.0" type="line" smooth="yes"/>
      <point x="808.0" y="-287.0"/>
      <point x="626.0" y="-417.0"/>
      <point x="517.0" y="-417.0" type="qcurve" smooth="yes"/>
      <point x="418.0" y="-417.0"/>
      <point x="380.0" y="-397.0" type="qcurve" smooth="yes"/>
      <point x="363.0" y="-388.0"/>
      <point x="370.0" y="-365.0" type="qcurve" smooth="yes"/>
      <point x="395.0" y="-284.0" type="line" smooth="yes"/>
      <point x="403.0" y="-258.0"/>
      <point x="424.0" y="-269.0" type="qcurve" smooth="yes"/>
      <point x="459.0" y="-287.0"/>
      <point x="515.0" y="-287.0" type="qcurve" smooth="yes"/>
      <point x="574.0" y="-287.0"/>
      <point x="658.0" y="-173.0"/>
      <point x="699.0" y="6.0" type="qcurve" smooth="yes"/>
      <point x="910.0" y="918.0" type="line"/>
      <point x="874.0" y="918.0" type="line" smooth="yes"/>
      <point x="700.0" y="918.0"/>
      <point x="543.0" y="818.0"/>
      <point x="514.0" y="691.0" type="qcurve" smooth="yes"/>
      <point x="495.0" y="607.0" type="line" smooth="yes"/>
      <point x="427.0" y="306.0"/>
      <point x="216.0" y="-17.0"/>
      <point x="22.0" y="-17.0" type="qcurve" smooth="yes"/>
      <point x="-41.0" y="-17.0"/>
    </contour>
  </outline>
</glyph>
<glyph name="figuredash" format="2">
  <advance width="1108"/>
  <unicode hex="2012"/>
  <outline>
    <contour>
      <point x="89.0" y="488.0" type="line" smooth="yes"/>
      <point x="44.0" y="488.0"/>
      <point x="44.0" y="523.0" type="qcurve" smooth="yes"/>
      <point x="44.0" y="583.0" type="line" smooth="yes"/>
      <point x="44.0" y="618.0"/>
      <point x="89.0" y="618.0" type="qcurve" smooth="yes"/>
      <point x="1027.0" y="618.0" type="line" smooth="yes"/>
      <point x="1072.0" y="618.0"/>
      <point x="1072.0" y="583.0" type="qcurve" smooth="yes"/>
      <point x="1072.0" y="523.0" type="line" smooth="yes"/>
      <point x="1072.0" y="488.0"/>
      <point x="1027.0" y="488.0" type="qcurve" smooth="yes"/>
    </contour>
  </outline>
</glyph>
<glyph name="emdash" format="2">
  <advance width="2056"/>
  <unicode hex="2014"/>
  <outline>
    <contour>
      <point x="89.0" y="488.0" type="line" smooth="yes"/>
      <point x="44.0" y="488.0"/>
      <point x="44.0" y="523.0" type="qcurve" smooth="yes"/>
      <point x="44.0" y="583.0" type="line" smooth="yes"/>
      <point x="44.0" y="618.0"/>
      <point x="89.0" y="618.0" type="qcurve" smooth="yes"/>
      <point x="1975.0" y="618.0" type="line" smooth="yes"/>
      <point x="2020.0" y="618.0"/>
      <point x="2020.0" y="583.0" type="qcurve" smooth="yes"/>
      <point x="2020.0" y="523.0" type="line" smooth="yes"/>
      <point x="2020.0" y="488.0"/>
      <point x="1975.0" y="488.0" type="qcurve" smooth="yes"/>
    </contour>
  </outline>
</glyph>
<glyph name="dagger" format="2">
  <advance width="1040"/>
  <unicode hex="2020"/>
  <outline>
    <contour>
      <point x="195.0" y="865.0" type="line" smooth="yes"/>
      <point x="150.0" y="865.0"/>
      <point x="160.0" y="910.0" type="qcurve" smooth="yes"/>
      <point x="173.0" y="966.0" type="line" smooth="yes"/>
      <point x="183.0" y="1011.0"/>
      <point x="228.0" y="1011.0" type="qcurve" smooth="yes"/>
      <point x="513.0" y="1011.0" type="line"/>
      <point x="561.0" y="1001.0" type="line"/>
      <point x="563.0" y="1051.0" type="line"/>
      <point x="629.0" y="1339.0" type="line" smooth="yes"/>
      <point x="639.0" y="1384.0"/>
      <point x="675.0" y="1384.0" type="qcurve" smooth="yes"/>
      <point x="765.0" y="1384.0" type="line" smooth="yes"/>
      <point x="800.0" y="1384.0"/>
      <point x="789.0" y="1339.0" type="qcurve" smooth="yes"/>
      <point x="723.0" y="1051.0" type="line"/>
      <point x="701.0" y="1001.0" type="line"/>
      <point x="753.0" y="1011.0" type="line"/>
      <point x="1038.0" y="1011.0" type="line" smooth="yes"/>
      <point x="1083.0" y="1011.0"/>
      <point x="1073.0" y="966.0" type="qcurve" smooth="yes"/>
      <point x="1060.0" y="910.0" type="line" smooth="yes"/>
      <point x="1050.0" y="865.0"/>
      <point x="1005.0" y="865.0" type="qcurve" smooth="yes"/>
      <point x="720.0" y="865.0" type="line"/>
      <point x="672.0" y="875.0" type="line"/>
      <point x="670.0" y="825.0" type="line"/>
      <point x="505.0" y="110.0" type="line"/>
      <point x="399.0" y="-265.0" type="line" smooth="yes"/>
      <point x="387.0" y="-310.0"/>
      <point x="348.0" y="-310.0" type="qcurve" smooth="yes"/>
      <point x="308.0" y="-310.0" type="line" smooth="yes"/>
      <point x="270.0" y="-310.0"/>
      <point x="279.0" y="-265.0" type="qcurve" smooth="yes"/>
      <point x="345.0" y="110.0" type="line"/>
      <point x="510.0" y="825.0" type="line"/>
      <point x="532.0" y="875.0" type="line"/>
      <point x="480.0" y="865.0" type="line"/>
    </contour>
  </outline>
</glyph>
<glyph name="uni2023" format="2">
  <advance width="1024"/>
  <unicode hex="2023"/>
  <outline>
    <contour>
      <point x="386.0" y="459.0" type="line" smooth="yes"/>
      <point x="350.0" y="440.0"/>
      <point x="350.0" y="480.0" type="qcurve" smooth="yes"/>
      <point x="350.0" y="908.0" type="line" smooth="yes"/>
      <point x="350.0" y="948.0"/>
      <point x="386.0" y="929.0" type="qcurve" smooth="yes"/>
      <point x="792.0" y="713.0" type="line" smooth="yes"/>
      <point x="828.0" y="694.0"/>
      <point x="792.0" y="675.0" type="qcurve" smooth="yes"/>
    </contour>
  </outline>
</glyph>
<glyph name="uni2077" format="2">
  <advance width="602"/>
  <unicode hex="2077"/>
  <outline>
    <contour>
      <point x="259.0" y="1344.0" type="line" smooth="yes"/>
      <point x="237.0" y="1344.0"/>
      <point x="242.0" y="1367.0" type="qcurve" smooth="yes"/>
      <point x="255.0" y="1427.0" type="line" smooth="yes"/>
      <point x="260.0" y="1451.0"/>
      <point x="284.0" y="1451.0" type="qcurve" smooth="yes"/>
      <point x="747.0" y="1451.0" type="line" smooth="yes"/>
      <point x="770.0" y="1451.0"/>
      <point x="765.0" y="1427.0" type="qcurve" smooth="yes"/>
      <point x="752.0" y="1370.0" type="line" smooth="yes"/>
      <point x="748.0" y="1353.0"/>
      <point x="725.0" y="1332.0" type="qcurve" smooth="yes"/>
      <point x="576.0" y="1202.0"/>
      <point x="392.0" y="946.0"/>
      <point x="356.0" y="784.0" type="qcurve" smooth="yes"/>
      <point x="345.0" y="735.0" type="line" smooth="yes"/>
      <point x="340.0" y="712.0"/>
      <point x="316.0" y="712.0" type="qcurve" smooth="yes"/>
      <point x="243.0" y="712.0" type="line" smooth="yes"/>
      <point x="220.0" y="712.0"/>
      <point x="225.0" y="735.0" type="qcurve" smooth="yes"/>
      <point x="232.0" y="766.0" type="line" smooth="yes"/>
      <point x="280.0" y="979.0"/>
      <point x="487.0" y="1225.0"/>
      <point x="627.0" y="1344.0" type="qcurve"/>
      <point x="627.0" y="1348.0" type="line"/>
      <point x="610.0" y="1344.0"/>
      <point x="595.0" y="1344.0" type="qcurve" smooth="yes"/>
    </contour>
  </outline>
</glyph>
<glyph name="uni207F" format="2">
  <advance width="793"/>
  <unicode hex="207F"/>
  <outline>
    <contour>
      <point x="204.0" y="799.0" type="line" smooth="yes"/>
      <point x="173.0" y="799.0"/>
      <point x="180.0" y="828.0" type="qcurve" smooth="yes"/>
      <point x="324.0" y="1452.0" type="line" smooth="yes"/>
      <point x="331.0" y="1482.0"/>
      <point x="362.0" y="1482.0" type="qcurve" smooth="yes"/>
      <point x="431.0" y="1482.0" type="line" smooth="yes"/>
      <point x="461.0" y="1482.0"/>
      <point x="454.0" y="1452.0" type="qcurve" smooth="yes"/>
      <point x="437.0" y="1382.0" type="line"/>
      <point x="440.0" y="1382.0" type="line"/>
      <point x="479.0" y="1428.0"/>
      <point x="597.0" y="1493.0"/>
      <point x="677.0" y="1493.0" type="qcurve" smooth="yes"/>
      <point x="782.0" y="1493.0"/>
      <point x="875.0" y="1348.0"/>
      <point x="850.0" y="1239.0" type="qcurve" smooth="yes"/>
      <point x="755.0" y="828.0" type="line" smooth="yes"/>
      <point x="748.0" y="799.0"/>
      <point x="717.0" y="799.0" type="qcurve" smooth="yes"/>
      <point x="660.0" y="799.0" type="line" smooth="yes"/>
      <point x="616.0" y="799.0"/>
      <point x="623.0" y="828.0" type="qcurve" smooth="yes"/>
      <point x="708.0" y="1195.0" type="line" smooth="yes"/>
      <point x="736.0" y="1315.0"/>
      <point x="668.0" y="1388.0"/>
      <point x="608.0" y="1388.0" type="qcurve" smooth="yes"/>
      <point x="532.0" y="1388.0"/>
      <point x="407.0" y="1252.0"/>
      <point x="384.0" y="1150.0" type="qcurve" smooth="yes"/>
      <point x="312.0" y="828.0" type="line" smooth="yes"/>
      <point x="306.0" y="799.0"/>
      <point x="274.0" y="799.0" type="qcurve" smooth="yes"/>
    </contour>
  </outline>
</glyph>
<glyph name="Euro" format="2">
  <advance width="1110"/>
  <unicode hex="20AC"/>
  <outline>
    <contour>
      <point x="101.0" y="798.0" type="line" smooth="yes"/>
      <point x="59.0" y="798.0"/>
      <point x="70.0" y="833.0" type="qcurve" smooth="yes"/>
      <point x="90.0" y="895.0" type="line" smooth="yes"/>
      <point x="101.0" y="930.0"/>
      <point x="149.0" y="930.0" type="qcurve" smooth="yes"/>
      <point x="213.0" y="930.0" type="line"/>
      <point x="243.0" y="1062.0"/>
      <point x="576.0" y="1452.0"/>
      <point x="852.0" y="1452.0" type="qcurve" smooth="yes"/>
      <point x="930.0" y="1452.0"/>
      <point x="1110.0" y="1392.0"/>
      <point x="1167.0" y="1307.0" type="qcurve" smooth="yes"/>
      <point x="1206.0" y="1249.0"/>
      <point x="1178.0" y="1227.0" type="qcurve" smooth="yes"/>
      <point x="1129.0" y="1189.0" type="line" smooth="yes"/>
      <point x="1091.0" y="1160.0"/>
      <point x="1051.0" y="1209.0" type="qcurve" smooth="yes"/>
      <point x="1014.0" y="1254.0"/>
      <point x="917.0" y="1302.0"/>
      <point x="828.0" y="1302.0" type="qcurve" smooth="yes"/>
      <point x="666.0" y="1302.0"/>
      <point x="432.0" y="1008.0"/>
      <point x="418.0" y="930.0" type="qcurve"/>
      <point x="818.0" y="930.0" type="line" smooth="yes"/>
      <point x="860.0" y="930.0"/>
      <point x="849.0" y="895.0" type="qcurve" smooth="yes"/>
      <point x="829.0" y="833.0" type="line" smooth="yes"/>
      <point x="818.0" y="798.0"/>
      <point x="770.0" y="798.0" type="qcurve" smooth="yes"/>
      <point x="370.0" y="798.0" type="line"/>
      <point x="348.0" y="724.0"/>
      <point x="337.0" y="646.0" type="qcurve"/>
      <point x="774.0" y="646.0" type="line" smooth="yes"/>
      <point x="816.0" y="646.0"/>
      <point x="805.0" y="611.0" type="qcurve" smooth="yes"/>
      <point x="786.0" y="549.0" type="line" smooth="yes"/>
      <point x="775.0" y="514.0"/>
      <point x="727.0" y="514.0" type="qcurve" smooth="yes"/>
      <point x="325.0" y="514.0" type="line"/>
      <point x="324.0" y="489.0"/>
      <point x="324.0" y="464.0" type="qcurve" smooth="yes"/>
      <point x="324.0" y="342.0"/>
      <point x="437.0" y="120.0"/>
      <point x="575.0" y="120.0" type="qcurve" smooth="yes"/>
      <point x="639.0" y="120.0"/>
      <point x="776.0" y="195.0"/>
      <point x="822.0" y="243.0" type="qcurve" smooth="yes"/>
      <point x="873.0" y="297.0"/>
      <point x="900.0" y="260.0" type="qcurve" smooth="yes"/>
      <point x="941.0" y="204.0" type="line" smooth="yes"/>
      <point x="969.0" y="166.0"/>
      <point x="927.0" y="125.0" type="qcurve" smooth="yes"/>
      <point x="870.0" y="70.0"/>
      <point x="698.0" y="-30.0"/>
      <point x="550.0" y="-30.0" type="qcurve" smooth="yes"/>
      <point x="357.0" y="-30.0"/>
      <point x="128.0" y="231.0"/>
      <point x="128.0" y="416.0" type="qcurve" smooth="yes"/>
      <point x="128.0" y="466.0"/>
      <point x="131.0" y="514.0" type="qcurve"/>
      <point x="58.0" y="514.0" type="line" smooth="yes"/>
      <point x="16.0" y="514.0"/>
      <point x="27.0" y="549.0" type="qcurve" smooth="yes"/>
      <point x="46.0" y="611.0" type="line" smooth="yes"/>
      <point x="57.0" y="646.0"/>
      <point x="105.0" y="646.0" type="qcurve" smooth="yes"/>
      <point x="143.0" y="646.0" type="line"/>
      <point x="154.0" y="725.0"/>
      <point x="172.0" y="798.0" type="qcurve"/>
    </contour>
  </outline>
</glyph>
<glyph name="lozenge" format="2">
  <advance width="1050"/>
  <unicode hex="25CA"/>
  <outline>
    <contour>
      <point x="127.0" y="717.0" type="qcurve" smooth="yes"/>
      <point x="127.0" y="733.0"/>
      <point x="144.0" y="764.0" type="qcurve" smooth="yes"/>
      <point x="521.0" y="1440.0" type="line" smooth="yes"/>
      <point x="534.0" y="1464.0"/>
      <point x="555.0" y="1464.0" type="qcurve" smooth="yes"/>
      <point x="587.0" y="1464.0" type="line" smooth="yes"/>
      <point x="608.0" y="1464.0"/>
      <point x="621.0" y="1440.0" type="qcurve" smooth="yes"/>
      <point x="998.0" y="764.0" type="line" smooth="yes"/>
      <point x="1015.0" y="733.0"/>
      <point x="1015.0" y="717.0" type="qcurve" smooth="yes"/>
      <point x="1015.0" y="701.0"/>
      <point x="998.0" y="670.0" type="qcurve" smooth="yes"/>
      <point x="621.0" y="-6.0" type="line" smooth="yes"/>
      <point x="608.0" y="-30.0"/>
      <point x="587.0" y="-30.0" type="qcurve" smooth="yes"/>
      <point x="555.0" y="-30.0" type="line" smooth="yes"/>
      <point x="534.0" y="-30.0"/>
      <point x="521.0" y="-6.0" type="qcurve" smooth="yes"/>
      <point x="144.0" y="670.0" type="line" smooth="yes"/>
      <point x="127.0" y="701.0"/>
    </contour>
    <contour>
      <point x="240.0" y="717.0" type="line"/>
      <point x="570.0" y="126.0" type="line"/>
      <point x="572.0" y="126.0" type="line"/>
      <point x="902.0" y="717.0" type="line"/>
      <point x="572.0" y="1308.0" type="line"/>
      <point x="570.0" y="1308.0" type="line"/>
    </contour>
  </outline>
</glyph>
<glyph name="dotaccent.cap" format="2">
  <advance width="820"/>
  <unicode hex="EFED"/>
  <outline>
    <contour>
      <point x="596.0" y="1545.0" type="line" smooth="yes"/>
      <point x="551.0" y="1545.0"/>
      <point x="561.0" y="1590.0" type="qcurve" smooth="yes"/>
      <point x="585.0" y="1692.0" type="line" smooth="yes"/>
      <point x="595.0" y="1737.0"/>
      <point x="640.0" y="1737.0" type="qcurve" smooth="yes"/>
      <point x="742.0" y="1737.0" type="line" smooth="yes"/>
      <point x="787.0" y="1737.0"/>
      <point x="777.0" y="1692.0" type="qcurve" smooth="yes"/>
      <point x="753.0" y="1590.0" type="line" smooth="yes"/>
      <point x="743.0" y="1545.0"/>
      <point x="698.0" y="1545.0" type="qcurve" smooth="yes"/>
    </contour>
  </outline>
</glyph>
<glyph name="circumflex.cap" format="2">
  <advance width="820"/>
  <unicode hex="EFF7"/>
  <outline>
    <contour>
      <point x="290.0" y="1589.0" type="line" smooth="yes"/>
      <point x="282.0" y="1621.0"/>
      <point x="328.0" y="1640.0" type="qcurve" smooth="yes"/>
      <point x="576.0" y="1744.0" type="line" smooth="yes"/>
      <point x="619.0" y="1762.0"/>
      <point x="644.0" y="1762.0" type="qcurve" smooth="yes"/>
      <point x="714.0" y="1762.0" type="line" smooth="yes"/>
      <point x="739.0" y="1762.0"/>
      <point x="774.0" y="1744.0" type="qcurve" smooth="yes"/>
      <point x="1008.0" y="1622.0" type="line" smooth="yes"/>
      <point x="1043.0" y="1603.0"/>
      <point x="1022.0" y="1571.0" type="qcurve" smooth="yes"/>
      <point x="994.0" y="1530.0" type="line" smooth="yes"/>
      <point x="973.0" y="1498.0"/>
      <point x="935.0" y="1517.0" type="qcurve" smooth="yes"/>
      <point x="678.0" y="1649.0" type="line"/>
      <point x="676.0" y="1649.0" type="line"/>
      <point x="357.0" y="1517.0" type="line" smooth="yes"/>
      <point x="312.0" y="1498.0"/>
      <point x="304.0" y="1530.0" type="qcurve" smooth="yes"/>
    </contour>
  </outline>
</glyph>
<glyph name="three.oldstyle.tab" format="2">
  <advance width="1110"/>
  <unicode hex="F646"/>
  <outline>
    <contour>
      <point x="-18.0" y="-122.0" type="qcurve" smooth="yes"/>
      <point x="-52.0" y="-85.0"/>
      <point x="-27.0" y="-57.0" type="qcurve" smooth="yes"/>
      <point x="24.0" y="0.0" type="line" smooth="yes"/>
      <point x="58.0" y="38.0"/>
      <point x="99.0" y="-8.0" type="qcurve" smooth="yes"/>
      <point x="162.0" y="-80.0"/>
      <point x="318.0" y="-142.0"/>
      <point x="396.0" y="-142.0" type="qcurve" smooth="yes"/>
      <point x="522.0" y="-142.0"/>
      <point x="724.0" y="46.0"/>
      <point x="724.0" y="171.0" type="qcurve" smooth="yes"/>
      <point x="724.0" y="266.0"/>
      <point x="612.0" y="387.0"/>
      <point x="497.0" y="387.0" type="qcurve" smooth="yes"/>
      <point x="401.0" y="387.0" type="line" smooth="yes"/>
      <point x="356.0" y="387.0"/>
      <point x="364.0" y="420.0" type="qcurve" smooth="yes"/>
      <point x="381.0" y="492.0" type="line" smooth="yes"/>
      <point x="389.0" y="527.0"/>
      <point x="434.0" y="527.0" type="qcurve" smooth="yes"/>
      <point x="499.0" y="527.0" type="line" smooth="yes"/>
      <point x="620.0" y="527.0"/>
      <point x="826.0" y="690.0"/>
      <point x="826.0" y="784.0" type="qcurve" smooth="yes"/>
      <point x="826.0" y="867.0"/>
      <point x="723.0" y="944.0"/>
      <point x="606.0" y="944.0" type="qcurve" smooth="yes"/>
      <point x="502.0" y="944.0"/>
      <point x="374.0" y="870.0"/>
      <point x="319.0" y="817.0" type="qcurve" smooth="yes"/>
      <point x="277.0" y="776.0"/>
      <point x="246.0" y="815.0" type="qcurve" smooth="yes"/>
      <point x="202.0" y="871.0" type="line" smooth="yes"/>
      <point x="179.0" y="900.0"/>
      <point x="225.0" y="943.0" type="qcurve" smooth="yes"/>
      <point x="284.0" y="998.0"/>
      <point x="482.0" y="1092.0"/>
      <point x="622.0" y="1092.0" type="qcurve" smooth="yes"/>
      <point x="834.0" y="1092.0"/>
      <point x="1014.0" y="927.0"/>
      <point x="1014.0" y="784.0" type="qcurve" smooth="yes"/>
      <point x="1014.0" y="660.0"/>
      <point x="810.0" y="492.0"/>
      <point x="698.0" y="468.0" type="qcurve"/>
      <point x="698.0" y="464.0" type="line"/>
      <point x="825.0" y="426.0"/>
      <point x="920.0" y="276.0"/>
      <point x="920.0" y="153.0" type="qcurve" smooth="yes"/>
      <point x="920.0" y="-24.0"/>
      <point x="582.0" y="-290.0"/>
      <point x="379.0" y="-290.0" type="qcurve" smooth="yes"/>
      <point x="250.0" y="-290.0"/>
      <point x="40.0" y="-184.0"/>
    </contour>
  </outline>
</glyph>
<glyph name="acute.cap" format="2">
  <advance width="820"/>
  <unicode hex="F6C9"/>
  <outline>
    <contour>
      <point x="514.0" y="1540.0" type="line" smooth="yes"/>
      <point x="457.0" y="1540.0"/>
      <point x="510.0" y="1593.0" type="qcurve" smooth="yes"/>
      <point x="665.0" y="1748.0" type="line" smooth="yes"/>
      <point x="702.0" y="1785.0"/>
      <point x="751.0" y="1785.0" type="qcurve" smooth="yes"/>
      <point x="920.0" y="1785.0" type="line" smooth="yes"/>
      <point x="997.0" y="1785.0"/>
      <point x="927.0" y="1733.0" type="qcurve" smooth="yes"/>
      <point x="706.0" y="1569.0" type="line" smooth="yes"/>
      <point x="666.0" y="1540.0"/>
      <point x="620.0" y="1540.0" type="qcurve" smooth="yes"/>
    </contour>
  </outline>
</glyph>
<glyph name="dieresis.cap" format="2">
  <advance width="820"/>
  <unicode hex="F6CB"/>
  <outline>
    <contour>
      <point x="363.0" y="1550.0" type="line" smooth="yes"/>
      <point x="318.0" y="1550.0"/>
      <point x="328.0" y="1595.0" type="qcurve" smooth="yes"/>
      <point x="349.0" y="1687.0" type="line" smooth="yes"/>
      <point x="360.0" y="1732.0"/>
      <point x="405.0" y="1732.0" type="qcurve" smooth="yes"/>
      <point x="497.0" y="1732.0" type="line" smooth="yes"/>
      <point x="542.0" y="1732.0"/>
      <point x="531.0" y="1687.0" type="qcurve" smooth="yes"/>
      <point x="510.0" y="1595.0" type="line" smooth="yes"/>
      <point x="500.0" y="1550.0"/>
      <point x="455.0" y="1550.0" type="qcurve" smooth="yes"/>
    </contour>
    <contour>
      <point x="841.0" y="1550.0" type="line" smooth="yes"/>
      <point x="796.0" y="1550.0"/>
      <point x="806.0" y="1595.0" type="qcurve" smooth="yes"/>
      <point x="827.0" y="1687.0" type="line" smooth="yes"/>
      <point x="838.0" y="1732.0"/>
      <point x="883.0" y="1732.0" type="qcurve" smooth="yes"/>
      <point x="975.0" y="1732.0" type="line" smooth="yes"/>
      <point x="1020.0" y="1732.0"/>
      <point x="1009.0" y="1687.0" type="qcurve" smooth="yes"/>
      <point x="988.0" y="1595.0" type="line" smooth="yes"/>
      <point x="978.0" y="1550.0"/>
      <point x="933.0" y="1550.0" type="qcurve" smooth="yes"/>
    </contour>
  </outline>
</glyph>
<glyph name="grave.cap" format="2">
  <advance width="820"/>
  <unicode hex="F6CE"/>
  <outline>
    <contour>
      <point x="443.0" y="1733.0" type="line" smooth="yes"/>
      <point x="387.0" y="1785.0"/>
      <point x="464.0" y="1785.0" type="qcurve" smooth="yes"/>
      <point x="609.0" y="1785.0" type="line" smooth="yes"/>
      <point x="658.0" y="1785.0"/>
      <point x="685.0" y="1748.0" type="qcurve" smooth="yes"/>
      <point x="796.0" y="1593.0" type="line" smooth="yes"/>
      <point x="834.0" y="1540.0"/>
      <point x="776.0" y="1540.0" type="qcurve" smooth="yes"/>
      <point x="694.0" y="1540.0" type="line" smooth="yes"/>
      <point x="648.0" y="1540.0"/>
      <point x="618.0" y="1569.0" type="qcurve" smooth="yes"/>
    </contour>
  </outline>
</glyph>
<glyph name="four.oldstyle" format="2">
  <advance width="1070"/>
  <unicode hex="F734"/>
  <outline>
    <contour>
      <point x="0.0" y="58.0" type="line" smooth="yes"/>
      <point x="-44.0" y="58.0"/>
      <point x="-34.0" y="103.0" type="qcurve" smooth="yes"/>
      <point x="-14.0" y="196.0" type="line" smooth="yes"/>
      <point x="-7.0" y="227.0"/>
      <point x="26.0" y="265.0" type="qcurve" smooth="yes"/>
      <point x="719.0" y="1048.0" type="line" smooth="yes"/>
      <point x="751.0" y="1084.0"/>
      <point x="781.0" y="1084.0" type="qcurve" smooth="yes"/>
      <point x="879.0" y="1084.0" type="line" smooth="yes"/>
      <point x="925.0" y="1084.0"/>
      <point x="915.0" y="1039.0" type="qcurve" smooth="yes"/>
      <point x="726.0" y="220.0" type="line"/>
      <point x="894.0" y="220.0" type="line" smooth="yes"/>
      <point x="938.0" y="220.0"/>
      <point x="928.0" y="175.0" type="qcurve" smooth="yes"/>
      <point x="912.0" y="103.0" type="line" smooth="yes"/>
      <point x="902.0" y="58.0"/>
      <point x="857.0" y="58.0" type="qcurve" smooth="yes"/>
      <point x="688.0" y="58.0" type="line"/>
      <point x="623.0" y="-225.0" type="line" smooth="yes"/>
      <point x="613.0" y="-270.0"/>
      <point x="568.0" y="-270.0" type="qcurve" smooth="yes"/>
      <point x="482.0" y="-270.0" type="line" smooth="yes"/>
      <point x="437.0" y="-270.0"/>
      <point x="447.0" y="-225.0" type="qcurve" smooth="yes"/>
      <point x="512.0" y="58.0" type="line"/>
    </contour>
    <contour>
      <point x="183.0" y="220.0" type="line"/>
      <point x="550.0" y="220.0" type="line"/>
      <point x="666.0" y="720.0" type="line" smooth="yes"/>
      <point x="675.0" y="758.0"/>
      <point x="681.0" y="780.0" type="qcurve"/>
      <point x="679.0" y="780.0" type="line"/>
    </contour>
  </outline>
</glyph>
<glyph name=".notdef" format="2">
  <advance width="1240"/>
  <outline>
    <contour>
      <point x="241.0" y="0.0" type="line" smooth="yes"/>
      <point x="196.0" y="0.0"/>
      <point x="196.0" y="45.0" type="qcurve" smooth="yes"/>
      <point x="196.0" y="1389.0" type="line" smooth="yes"/>
      <point x="196.0" y="1434.0"/>
      <point x="233.0" y="1434.0" type="qcurve" smooth="yes"/>
      <point x="1091.0" y="1434.0" type="line" smooth="yes"/>
      <point x="1136.0" y="1434.0"/>
      <point x="1136.0" y="1389.0" type="qcurve" smooth="yes"/>
      <point x="1136.0" y="45.0" type="line" smooth="yes"/>
      <point x="1136.0" y="0.0"/>
      <point x="1091.0" y="0.0" type="qcurve" smooth="yes"/>
    </contour>
    <contour>
      <point x="316.0" y="120.0" type="line"/>
      <point x="1016.0" y="120.0" type="line"/>
      <point x="1016.0" y="1314.0" type="line"/>
      <point x="316.0" y="1314.0" type="line"/>
    </contour>
  </outline>
</glyph>
<glyph name="hard.alt" format="2">
  <advance width="1285"/>
  <outline>
    <contour>
      <point x="187.0" y="920.0" type="line" smooth="yes"/>
      <point x="142.0" y="920.0"/>
      <point x="150.0" y="955.0" type="qcurve" smooth="yes"/>
      <point x="164.0" y="1015.0" type="line" smooth="yes"/>
      <point x="172.0" y="1050.0"/>
      <point x="217.0" y="1050.0" type="qcurve" smooth="yes"/>
      <point x="663.0" y="1050.0" type="line" smooth="yes"/>
      <point x="708.0" y="1050.0"/>
      <point x="698.0" y="1005.0" type="qcurve" smooth="yes"/>
      <point x="609.0" y="618.0" type="line"/>
      <point x="811.0" y="618.0" type="line" smooth="yes"/>
      <point x="1030.0" y="618.0"/>
      <point x="1170.0" y="462.0"/>
      <point x="1170.0" y="357.0" type="qcurve" smooth="yes"/>
      <point x="1170.0" y="212.0"/>
      <point x="962.0" y="0.0"/>
      <point x="708.0" y="0.0" type="qcurve" smooth="yes"/>
      <point x="335.0" y="0.0" type="line" smooth="yes"/>
      <point x="290.0" y="0.0"/>
      <point x="300.0" y="45.0" type="qcurve" smooth="yes"/>
      <point x="502.0" y="920.0" type="line"/>
    </contour>
    <contour>
      <point x="496.0" y="131.0" type="line"/>
      <point x="692.0" y="131.0" type="line" smooth="yes"/>
      <point x="818.0" y="131.0"/>
      <point x="984.0" y="236.0"/>
      <point x="984.0" y="350.0" type="qcurve" smooth="yes"/>
      <point x="984.0" y="446.0"/>
      <point x="838.0" y="488.0"/>
      <point x="735.0" y="488.0" type="qcurve" smooth="yes"/>
      <point x="579.0" y="488.0" type="line"/>
    </contour>
  </outline>
</glyph>
<glyph name="plus.tab" format="2">
  <advance width="1110"/>
  <outline>
    <contour>
      <point x="162.0" y="665.0" type="line" smooth="yes"/>
      <point x="117.0" y="665.0"/>
      <point x="117.0" y="700.0" type="qcurve" smooth="yes"/>
      <point x="117.0" y="750.0" type="line" smooth="yes"/>
      <point x="117.0" y="785.0"/>
      <point x="162.0" y="785.0" type="qcurve" smooth="yes"/>
      <point x="542.0" y="785.0" type="line"/>
      <point x="542.0" y="1165.0" type="line" smooth="yes"/>
      <point x="542.0" y="1210.0"/>
      <point x="577.0" y="1210.0" type="qcurve" smooth="yes"/>
      <point x="627.0" y="1210.0" type="line" smooth="yes"/>
      <point x="662.0" y="1210.0"/>
      <point x="662.0" y="1165.0" type="qcurve" smooth="yes"/>
      <point x="662.0" y="785.0" type="line"/>
      <point x="1042.0" y="785.0" type="line" smooth="yes"/>
      <point x="1087.0" y="785.0"/>
      <point x="1087.0" y="750.0" type="qcurve" smooth="yes"/>
      <point x="1087.0" y="700.0" type="line" smooth="yes"/>
      <point x="1087.0" y="665.0"/>
      <point x="1042.0" y="665.0" type="qcurve" smooth="yes"/>
      <point x="662.0" y="665.0" type="line"/>
      <point x="662.0" y="285.0" type="line" smooth="yes"/>
      <point x="662.0" y="240.0"/>
      <point x="627.0" y="240.0" type="qcurve" smooth="yes"/>
      <point x="577.0" y="240.0" type="line" smooth="yes"/>
      <point x="542.0" y="240.0"/>
      <point x="542.0" y="285.0" type="qcurve" smooth="yes"/>
      <point x="542.0" y="665.0" type="line"/>
    </contour>
  </outline>
</glyph>
<glyph name="soft.alt" format="2">
  <advance width="1017"/>
  <outline>
    <contour>
      <point x="67.0" y="0.0" type="line" smooth="yes"/>
      <point x="22.0" y="0.0"/>
      <point x="32.0" y="45.0" type="qcurve" smooth="yes"/>
      <point x="254.0" y="1005.0" type="line" smooth="yes"/>
      <point x="264.0" y="1050.0"/>
      <point x="309.0" y="1050.0" type="qcurve" smooth="yes"/>
      <point x="395.0" y="1050.0" type="line" smooth="yes"/>
      <point x="440.0" y="1050.0"/>
      <point x="430.0" y="1005.0" type="qcurve" smooth="yes"/>
      <point x="341.0" y="618.0" type="line"/>
      <point x="543.0" y="618.0" type="line" smooth="yes"/>
      <point x="762.0" y="618.0"/>
      <point x="902.0" y="462.0"/>
      <point x="902.0" y="357.0" type="qcurve" smooth="yes"/>
      <point x="902.0" y="212.0"/>
      <point x="694.0" y="0.0"/>
      <point x="440.0" y="0.0" type="qcurve" smooth="yes"/>
    </contour>
    <contour>
      <point x="228.0" y="131.0" type="line"/>
      <point x="424.0" y="131.0" type="line" smooth="yes"/>
      <point x="550.0" y="131.0"/>
      <point x="716.0" y="236.0"/>
      <point x="716.0" y="350.0" type="qcurve" smooth="yes"/>
      <point x="716.0" y="446.0"/>
      <point x="570.0" y="488.0"/>
      <point x="467.0" y="488.0" type="qcurve" smooth="yes"/>
      <point x="311.0" y="488.0" type="line"/>
    </contour>
  </outline>
</glyph>
<glyph name="yat.alt" format="2">
  <advance width="1628"/>
  <outline>
    <contour>
      <point x="67.0" y="0.0" type="line" smooth="yes"/>
      <point x="22.0" y="0.0"/>
      <point x="32.0" y="45.0" type="qcurve" smooth="yes"/>
      <point x="254.0" y="1005.0" type="line" smooth="yes"/>
      <point x="264.0" y="1050.0"/>
      <point x="309.0" y="1050.0" type="qcurve" smooth="yes"/>
      <point x="393.0" y="1050.0" type="line" smooth="yes"/>
      <point x="438.0" y="1050.0"/>
      <point x="428.0" y="1005.0" type="qcurve" smooth="yes"/>
      <point x="396.0" y="865.0" type="line"/>
      <point x="400.0" y="865.0" type="line"/>
      <point x="452.0" y="938.0"/>
      <point x="643.0" y="1067.0"/>
      <point x="733.0" y="1067.0" type="qcurve" smooth="yes"/>
      <point x="888.0" y="1067.0"/>
      <point x="1013.0" y="886.0"/>
      <point x="982.0" y="749.0" type="qcurve" smooth="yes"/>
      <point x="952.0" y="618.0" type="line"/>
      <point x="1154.0" y="618.0" type="line" smooth="yes"/>
      <point x="1373.0" y="618.0"/>
      <point x="1513.0" y="462.0"/>
      <point x="1513.0" y="357.0" type="qcurve" smooth="yes"/>
      <point x="1513.0" y="212.0"/>
      <point x="1305.0" y="0.0"/>
      <point x="1051.0" y="0.0" type="qcurve" smooth="yes"/>
      <point x="678.0" y="0.0" type="line" smooth="yes"/>
      <point x="633.0" y="-0.0"/>
      <point x="643.0" y="45.0" type="qcurve" smooth="yes"/>
      <point x="784.0" y="656.0" type="line" smooth="yes"/>
      <point x="824.0" y="830.0"/>
      <point x="754.0" y="937.0"/>
      <point x="681.0" y="937.0" type="qcurve" smooth="yes"/>
      <point x="590.0" y="937.0"/>
      <point x="350.0" y="661.0"/>
      <point x="312.0" y="496.0" type="qcurve" smooth="yes"/>
      <point x="208.0" y="45.0" type="line" smooth="yes"/>
      <point x="198.0" y="0.0"/>
      <point x="153.0" y="0.0" type="qcurve" smooth="yes"/>
    </contour>
    <contour>
      <point x="839.0" y="131.0" type="line"/>
      <point x="1035.0" y="131.0" type="line" smooth="yes"/>
      <point x="1161.0" y="131.0"/>
      <point x="1327.0" y="236.0"/>
      <point x="1327.0" y="350.0" type="qcurve" smooth="yes"/>
      <point x="1327.0" y="446.0"/>
      <point x="1181.0" y="488.0"/>
      <point x="1078.0" y="488.0" type="qcurve" smooth="yes"/>
      <point x="922.0" y="488.0" type="line"/>
    </contour>
  </outline>
</glyph>
